<svg width="232" height="233" viewBox="0 0 232 233" fill="none" xmlns="http://www.w3.org/2000/svg">
    <path d="M107.919 5.31671C112.846 2.16582 119.155 2.16581 124.082 5.31671L132.956 10.9922C136.018 12.9504 139.687 13.7303 143.281 13.1868L153.697 11.6116C159.479 10.7371 165.243 13.3032 168.462 18.1857L174.261 26.9802C176.262 30.0145 179.296 32.2191 182.8 33.1843L192.956 35.9818C198.595 37.5349 202.816 42.2234 203.772 47.9933L205.492 58.3861C206.086 61.9719 207.961 65.2201 210.77 67.5271L218.91 74.2136C223.429 77.9257 225.379 83.926 223.905 89.5855L221.249 99.7797C220.333 103.297 220.725 107.027 222.353 110.277L227.069 119.696C229.688 124.926 229.029 131.2 225.38 135.771L218.808 144.004C216.54 146.844 215.381 150.411 215.546 154.042L216.024 164.566C216.289 170.408 213.135 175.872 207.942 178.563L198.59 183.411C195.363 185.084 192.853 187.871 191.527 191.255L187.683 201.063C185.549 206.508 180.445 210.217 174.607 210.563L164.091 211.188C160.463 211.404 157.037 212.929 154.449 215.481L146.948 222.878C142.784 226.984 136.613 228.296 131.138 226.238L121.278 222.532C117.875 221.253 114.125 221.253 110.722 222.532L100.862 226.238C95.3873 228.296 89.2161 226.984 85.0519 222.878L77.5512 215.481C74.9633 212.929 71.5368 211.404 67.9086 211.188L57.3928 210.563C51.5548 210.217 46.4507 206.508 44.3167 201.063L40.4729 191.255C39.1467 187.871 36.637 185.084 33.4102 183.411L24.0577 178.563C18.8654 175.872 15.7109 170.408 15.9762 164.566L16.454 154.042C16.6189 150.411 15.4598 146.844 13.1923 144.004L6.6202 135.771C2.97155 131.2 2.31208 124.926 4.9307 119.696L9.64749 110.277C11.2749 107.027 11.6669 103.297 10.7508 99.7797L8.09547 89.5855C6.62131 83.926 8.57091 77.9257 13.0901 74.2136L21.2303 67.5271C24.0388 65.2201 25.9142 61.9719 26.5078 58.3861L28.2284 47.9933C29.1836 42.2234 33.4052 37.5349 39.0436 35.9818L49.1996 33.1843C52.7037 32.2191 55.7381 30.0145 57.7389 26.9802L63.5379 18.1857C66.7573 13.3032 72.5209 10.7371 78.3035 11.6116L88.7194 13.1868C92.3131 13.7303 95.9819 12.9504 99.0438 10.9922L107.919 5.31671Z" fill="#9CB79A"/>
    <circle cx="116" cy="116.148" r="90.4189" stroke="white"/>
    <circle cx="116" cy="116.148" r="58.5" stroke="white"/>
    <path d="M46.7891 142.176C47.5298 142.148 48.2136 142.262 48.8404 142.519C49.4957 142.775 50.094 143.146 50.6354 143.659C51.1767 144.172 51.6041 144.771 51.9175 145.484C52.2309 146.196 52.4018 146.909 52.4018 147.65C52.4018 148.392 52.2878 149.105 52.0314 149.76L50.4074 149.247C50.6354 148.734 50.7493 148.221 50.7208 147.707C50.6923 147.194 50.5784 146.681 50.3789 146.225C50.094 145.569 49.6667 145.056 49.1253 144.685C48.584 144.315 47.9857 144.087 47.3304 144.03C46.6751 143.973 46.0483 144.087 45.4215 144.343C44.4813 144.771 43.7975 145.455 43.4271 146.396C43.0568 147.337 43.0853 148.306 43.5411 149.304C43.883 150.045 44.3389 150.559 44.9657 150.844C45.5925 151.129 46.3332 151.129 47.2449 150.815L45.9059 147.793L47.5583 147.052L49.6382 151.785L48.527 152.269C47.9002 152.554 47.2734 152.725 46.6466 152.782C46.0198 152.839 45.393 152.782 44.8232 152.611C44.2249 152.44 43.6836 152.127 43.1992 151.699C42.7149 151.243 42.2875 150.673 41.9741 149.96C41.6607 149.247 41.4898 148.506 41.4613 147.765C41.4328 147.023 41.5467 146.31 41.7747 145.683C42.0026 145.027 42.373 144.457 42.8858 143.916C43.3987 143.374 43.9685 142.946 44.6523 142.661C45.3645 142.376 46.0483 142.205 46.7891 142.176Z" fill="white"/>
    <path d="M54.4245 151.072L57.9289 156.774L56.3904 157.715L53.8547 153.609L51.8603 154.835L53.8547 158.057L52.3162 158.998L50.3218 155.776L47.9286 157.258L50.4643 161.364L48.9257 162.305L45.4214 156.603L54.4245 151.072Z" fill="white"/>
    <path d="M58.6696 157.801L59.8093 159.283L52.9144 164.672L55.9345 168.521L54.5099 169.632L50.3503 164.301L58.6696 157.801Z" fill="white"/>
    <path d="M63.3993 163.759L65.5076 165.868C66.3054 166.667 66.8467 167.493 67.1601 168.406C67.4735 169.318 67.502 170.202 67.2741 171.114C67.0461 172.027 66.5618 172.853 65.7925 173.623C65.0233 174.393 64.197 174.878 63.2853 175.106C62.3736 175.334 61.4904 175.305 60.5787 174.992C59.667 174.678 58.8407 174.136 58.043 173.338L55.9347 171.228L63.3993 163.759ZM59.3251 172.027C59.6955 172.397 60.0943 172.711 60.5217 172.939C60.9206 173.167 61.3479 173.31 61.8038 173.367C62.2597 173.424 62.687 173.367 63.1714 173.196C63.6272 173.025 64.0831 172.711 64.5104 172.255C64.9378 171.827 65.2512 171.371 65.4222 170.886C65.5931 170.43 65.6501 169.974 65.5931 169.518C65.5361 169.09 65.3652 168.662 65.1372 168.235C64.9093 167.836 64.5959 167.436 64.2255 167.037L63.4563 166.267L58.5558 171.285L59.3251 172.027Z" fill="white"/>
    <path d="M67.6161 179.554L76.5053 177.216L71.6619 173.909L72.6875 172.427L79.5254 177.102L78.4997 178.585L69.6105 180.923L74.5679 184.316L73.5423 185.798L66.562 181.008L67.6161 179.554Z" fill="white"/>
    <path d="M80.2658 177.558L81.9468 178.385L79.7245 182.861C79.4111 183.488 79.1831 184.001 79.0407 184.457C78.8982 184.914 78.8128 185.341 78.8413 185.74C78.8413 186.14 78.9552 186.51 79.1831 186.795C79.4111 187.109 79.753 187.366 80.2088 187.594C80.5792 187.765 80.9211 187.879 81.2345 187.907C81.5479 187.936 81.8328 187.907 82.1177 187.793C82.3741 187.679 82.6305 187.508 82.887 187.252C83.1434 186.995 83.3713 186.71 83.5992 186.368C83.8272 186.026 84.0551 185.626 84.283 185.113L86.5053 180.637L88.1863 181.464L85.5651 186.738C84.8528 188.164 83.9696 189.048 82.887 189.447C81.8043 189.846 80.6647 189.732 79.4396 189.105C78.2145 188.506 77.4452 187.651 77.1033 186.539C76.7614 185.455 76.9608 184.201 77.6446 182.775L80.2658 177.558Z" fill="white"/>
    <path d="M89.6682 182.063L93.714 183.432C94.7111 183.774 95.3949 184.287 95.7653 185C96.1357 185.713 96.1642 186.511 95.8793 187.423C95.6229 188.193 95.224 188.735 94.6542 189.105C94.0843 189.476 93.4006 189.59 92.6313 189.476L93.6855 194.551L91.6911 193.867L90.6654 188.906L89.4688 188.507L88.0727 192.669L86.3063 192.07L89.6682 182.063ZM92.3179 187.594C92.7453 187.737 93.0872 187.737 93.4006 187.623C93.714 187.509 93.9419 187.252 94.0559 186.853C94.1983 186.482 94.1698 186.14 93.9989 185.827C93.8279 185.513 93.543 185.313 93.1156 185.171L90.8079 184.401L89.9816 186.853L92.3179 187.594Z" fill="white"/>
    <path d="M97.7879 184.771L99.6113 185.113L98.6711 190.017C98.5287 190.701 98.4717 191.271 98.4432 191.756C98.4147 192.241 98.4717 192.668 98.5857 193.039C98.6996 193.438 98.8991 193.723 99.2125 193.98C99.4974 194.208 99.8962 194.379 100.409 194.464C100.808 194.55 101.178 194.55 101.492 194.493C101.805 194.436 102.062 194.322 102.289 194.151C102.517 193.98 102.717 193.723 102.888 193.409C103.059 193.096 103.201 192.754 103.315 192.355C103.429 191.955 103.543 191.499 103.657 190.958L104.597 186.054L106.449 186.396L105.338 192.183C105.053 193.723 104.426 194.835 103.486 195.519C102.546 196.204 101.406 196.403 100.067 196.146C98.7281 195.89 97.7594 195.291 97.1326 194.322C96.5058 193.352 96.3349 192.098 96.6483 190.558L97.7879 184.771ZM100.409 182.376C100.666 182.205 100.95 182.148 101.235 182.205C101.549 182.262 101.777 182.404 101.948 182.661C102.119 182.917 102.176 183.174 102.119 183.488C102.062 183.801 101.919 184.029 101.663 184.2C101.406 184.372 101.15 184.429 100.836 184.372C100.523 184.315 100.295 184.172 100.124 183.915C99.9532 183.659 99.8963 183.402 99.9532 183.089C100.01 182.775 100.153 182.547 100.409 182.376ZM103.344 182.946C103.6 182.775 103.885 182.718 104.17 182.775C104.483 182.832 104.711 182.975 104.882 183.231C105.053 183.488 105.11 183.744 105.053 184.058C104.996 184.372 104.854 184.6 104.597 184.771C104.341 184.942 104.084 184.999 103.771 184.942C103.458 184.885 103.23 184.742 103.059 184.486C102.888 184.229 102.831 183.972 102.888 183.659C102.945 183.345 103.087 183.117 103.344 182.946Z" fill="white"/>
    <path d="M107.56 189.732C107.873 189.077 108.272 188.506 108.785 188.05C109.298 187.594 109.896 187.223 110.58 186.967C111.264 186.71 112.005 186.596 112.774 186.625C113.543 186.653 114.255 186.853 114.911 187.166C115.566 187.48 116.136 187.936 116.62 188.478L115.395 189.732C114.711 188.848 113.8 188.392 112.688 188.335C112.005 188.307 111.406 188.449 110.808 188.763C110.21 189.077 109.782 189.533 109.44 190.074C109.099 190.616 108.899 191.243 108.871 191.928C108.842 192.612 108.985 193.239 109.269 193.809C109.583 194.408 109.982 194.864 110.523 195.235C111.064 195.606 111.663 195.777 112.347 195.805C112.831 195.834 113.315 195.748 113.8 195.549C114.284 195.349 114.711 195.092 115.053 194.75L116.079 196.119C115.538 196.575 114.939 196.946 114.312 197.202C113.657 197.459 112.973 197.544 112.261 197.516C111.264 197.459 110.352 197.202 109.526 196.66C108.7 196.147 108.073 195.463 107.617 194.608C107.161 193.752 106.962 192.811 106.99 191.814C107.076 191.072 107.247 190.388 107.56 189.732Z" fill="white"/>
    <path d="M117.475 186.91L119.327 186.739L119.726 191.386L123.316 186.397L125.652 186.197L121.407 191.842L126.906 196.66L124.427 196.86L119.84 192.754L120.21 197.202L118.358 197.373L117.475 186.91Z" fill="white"/>
    <path d="M130.239 188.62C130.325 187.908 130.524 187.223 130.866 186.625C131.208 186.026 131.664 185.484 132.233 185.028C132.803 184.572 133.487 184.23 134.228 184.03C134.969 183.831 135.709 183.774 136.45 183.859C137.191 183.945 137.875 184.173 138.501 184.543L137.761 186.054C137.305 185.741 136.792 185.57 136.279 185.513C135.766 185.456 135.253 185.513 134.741 185.627C134.057 185.826 133.487 186.168 133.031 186.653C132.575 187.138 132.262 187.708 132.119 188.335C131.977 188.962 131.977 189.618 132.176 190.274C132.461 191.272 133.031 192.042 133.914 192.526C134.798 193.011 135.766 193.125 136.792 192.84C137.561 192.612 138.16 192.213 138.53 191.642C138.9 191.072 139.014 190.302 138.843 189.39L135.652 190.302L135.168 188.563L140.154 187.166L140.496 188.335C140.695 188.991 140.752 189.647 140.724 190.274C140.695 190.901 140.553 191.5 140.296 192.07C140.04 192.64 139.67 193.125 139.157 193.553C138.644 193.98 138.017 194.294 137.276 194.522C136.536 194.722 135.766 194.807 135.026 194.722C134.285 194.636 133.601 194.437 133.003 194.094C132.404 193.752 131.863 193.325 131.407 192.754C130.951 192.184 130.609 191.528 130.41 190.816C130.211 190.074 130.154 189.362 130.239 188.62Z" fill="white"/>
    <path d="M142.69 181.207L144.428 180.437L152.576 188.335L150.724 189.162L149.015 187.451L144.855 189.304L144.998 191.699L143.146 192.526L142.69 181.207ZM147.676 186.111L144.513 182.946L144.741 187.422L147.676 186.111Z" fill="white"/>
    <path d="M148.616 178.385L152.263 176.132C153.146 175.591 154.001 175.391 154.798 175.562C155.596 175.733 156.223 176.218 156.736 177.016C157.163 177.701 157.334 178.385 157.249 179.041C157.163 179.696 156.821 180.295 156.223 180.837L160.81 183.26L159.015 184.372L154.542 181.977L153.459 182.633L155.767 186.368L154.172 187.337L148.616 178.385ZM154.571 179.867C154.941 179.639 155.197 179.354 155.283 179.041C155.397 178.727 155.34 178.385 155.112 178.043C154.912 177.701 154.628 177.501 154.286 177.444C153.944 177.387 153.573 177.472 153.203 177.701L151.123 178.984L152.462 181.179L154.571 179.867Z" fill="white"/>
    <path d="M158.274 171.885L159.756 170.688L169.67 176.219L168.103 177.502L165.995 176.304L162.462 179.184L163.231 181.465L161.664 182.748L158.274 171.885ZM164.343 175.335L160.468 173.083L161.864 177.359L164.343 175.335Z" fill="white"/>
    <path d="M163.26 167.778L164.855 166.039L174.058 167.094L168.531 162.019L169.784 160.651L177.562 167.778L176.223 169.232L166.394 168.092L172.32 173.509L171.066 174.877L163.26 167.778Z" fill="white"/>
    <path d="M170.212 160.052L175.084 152.925L176.565 153.951L174.657 156.745L181.865 161.677L180.811 163.217L173.602 158.285L171.694 161.079L170.212 160.052Z" fill="white"/>
    <path d="M175.482 151.955L176.394 150.33L185.597 155.462L184.685 157.087L175.482 151.955Z" fill="white"/>
    <path d="M177.306 148.733L180.041 142.632L181.693 143.373L179.728 147.764L181.864 148.733L183.431 145.284L185.055 146.025L183.488 149.475L186.053 150.644L188.018 146.253L189.642 146.994L186.907 153.096L177.306 148.733Z" fill="white"/>
    <path d="M43.1139 90.4018C42.6296 89.8601 42.2307 89.2899 42.0028 88.6341C41.7463 87.9784 41.6039 87.2941 41.6324 86.5528C41.6609 85.8116 41.8033 85.0988 42.1167 84.386C42.4301 83.6732 42.8575 83.0745 43.3988 82.5613C43.9401 82.0481 44.5385 81.6775 45.2222 81.4209L45.9345 82.9605C45.3932 83.1315 44.9373 83.3881 44.5669 83.7588C44.1966 84.1294 43.8832 84.5571 43.6837 85.0133C43.3988 85.669 43.2849 86.2962 43.3703 86.9805C43.4558 87.6362 43.6837 88.235 44.0826 88.7482C44.4815 89.2614 44.9943 89.6605 45.5926 89.9456C46.5328 90.3733 47.5015 90.4018 48.4417 90.0597C49.3819 89.689 50.0942 89.0333 50.5216 88.0639C50.8635 87.3226 50.9204 86.6099 50.721 85.9541C50.5216 85.2984 50.0087 84.7281 49.1825 84.272L47.8149 87.2941L46.1909 86.5528L48.2993 81.8486L49.4104 82.3332C50.0372 82.6183 50.5785 82.9605 51.0629 83.4167C51.5187 83.8443 51.8891 84.329 52.174 84.8707C52.4305 85.4124 52.5729 86.0111 52.5729 86.6954C52.5729 87.3511 52.402 88.0639 52.0886 88.7482C51.7752 89.4609 51.3478 90.0597 50.8065 90.6014C50.2651 91.1146 49.6668 91.5137 49.04 91.7703C48.3847 92.0269 47.701 92.1409 46.9887 92.1409C46.2479 92.1409 45.5356 91.9699 44.8519 91.6563C44.1966 91.3426 43.5983 90.915 43.1139 90.4018Z" fill="white"/>
    <path d="M45.6776 77.6868L49.182 72.0132L50.7205 72.954L48.1848 77.0311L50.1792 78.257L52.1735 75.0353L53.6835 75.9762L51.6892 79.1979L54.0824 80.6805L56.6181 76.6034L58.1281 77.5443L54.5953 83.2179L45.6776 77.6868Z" fill="white"/>
    <path d="M50.6352 70.0175L51.8033 68.5635L58.6696 73.9805L61.6897 70.1316L63.0857 71.2435L58.8975 76.575L50.6352 70.0175Z" fill="white"/>
    <path d="M56.2192 63.1182L58.356 61.0084C59.1538 60.2101 60.0085 59.6684 60.8917 59.3833C61.8034 59.0697 62.6867 59.0412 63.5984 59.2693C64.5101 59.4974 65.3363 60.0106 66.0771 60.7803C66.8463 61.5501 67.3307 62.3769 67.5586 63.2893C67.7865 64.2016 67.7296 65.0855 67.4162 65.9978C67.1028 66.8816 66.5614 67.737 65.7637 68.5353L63.6269 70.6451L56.2192 63.1182ZM64.4816 67.2523C64.8805 66.8816 65.1654 66.4825 65.4218 66.0833C65.6497 65.6842 65.7922 65.2565 65.8776 64.8004C65.9631 64.3442 65.8776 63.888 65.7067 63.4318C65.5358 62.9757 65.2224 62.5195 64.795 62.0633C64.3676 61.6357 63.9118 61.322 63.4559 61.1225C63.0001 60.9514 62.5442 60.8659 62.0883 60.9514C61.661 61.0084 61.2336 61.151 60.8063 61.3791C60.4074 61.6072 60.0085 61.9208 59.6096 62.2914L58.8404 63.0612L63.7123 68.0221L64.4816 67.2523Z" fill="white"/>
    <path d="M71.8328 60.6088L72.9154 51.4854L68.072 54.7641L67.0748 53.2815L73.9126 48.6343L74.9098 50.1168L73.8272 59.2403L78.8131 55.876L79.8103 57.3586L72.8015 62.0914L71.8328 60.6088Z" fill="white"/>
    <path d="M75.9352 47.4359L77.6162 46.6091L79.81 51.0853C80.1234 51.7126 80.4083 52.1972 80.6647 52.5964C80.9496 52.9955 81.2345 53.3092 81.5764 53.5372C81.8898 53.7653 82.2602 53.9079 82.6306 53.9079C83.001 53.9079 83.4283 53.7938 83.8842 53.5658C84.2546 53.3947 84.5395 53.1666 84.7674 52.9385C84.9953 52.7104 85.1378 52.4538 85.1948 52.1687C85.2802 51.8836 85.2802 51.57 85.2233 51.2279C85.1663 50.8857 85.0808 50.5151 84.9384 50.116C84.7959 49.7453 84.625 49.2891 84.3685 48.8045L82.1747 44.3283L83.8557 43.5015L86.4484 48.776C87.1322 50.2015 87.3316 51.456 86.9612 52.5394C86.6193 53.6228 85.8216 54.4781 84.5965 55.0768C83.3714 55.6756 82.2317 55.7896 81.1491 55.3904C80.0664 54.9913 79.1832 54.079 78.4994 52.6819L75.9352 47.4359Z" fill="white"/>
    <path d="M86.6761 42.4759L90.7218 41.1359C91.719 40.7937 92.5737 40.8222 93.3145 41.1644C94.0552 41.5065 94.5396 42.1337 94.853 43.0461C95.1094 43.8159 95.1094 44.5001 94.8815 45.1274C94.6535 45.7546 94.1692 46.2678 93.4854 46.6384L97.3887 50.0597L95.3943 50.7155L91.605 47.3512L90.4084 47.7503L91.7759 51.9129L90.0095 52.5116L86.6761 42.4759ZM92.1178 45.2699C92.5452 45.1274 92.8301 44.9278 93.001 44.6142C93.172 44.3005 93.2005 43.9869 93.058 43.6163C92.9441 43.2456 92.7161 42.9605 92.4027 42.818C92.0893 42.6754 91.719 42.6754 91.2916 42.818L88.9838 43.5878L89.7816 46.0397L92.1178 45.2699Z" fill="white"/>
    <path d="M96.192 39.4537L98.0154 39.1115L98.9271 44.0154C99.0411 44.6997 99.1836 45.2414 99.3545 45.6975C99.5255 46.1537 99.7249 46.5243 99.9813 46.838C100.238 47.1516 100.523 47.3797 100.893 47.4652C101.263 47.5792 101.691 47.5792 102.175 47.4937C102.574 47.4082 102.916 47.2941 103.172 47.1231C103.429 46.952 103.657 46.7524 103.799 46.4958C103.942 46.2392 104.056 45.9541 104.084 45.5835C104.141 45.2414 104.141 44.8422 104.113 44.4431C104.084 44.0439 104.027 43.5592 103.913 43.046L103.001 38.1422L104.853 37.8001L105.936 43.5877C106.221 45.1273 106.05 46.3818 105.423 47.3512C104.796 48.3205 103.828 48.9192 102.489 49.1758C101.149 49.4324 100.01 49.2329 99.0696 48.5486C98.1294 47.8929 97.5311 46.7809 97.2462 45.2128L96.192 39.4537ZM97.759 36.2605C97.93 36.0039 98.1579 35.8613 98.4713 35.8043C98.7847 35.7473 99.0411 35.8043 99.2975 35.9754C99.5539 36.1464 99.6964 36.3745 99.7534 36.6881C99.8104 37.0018 99.7534 37.2869 99.5824 37.5149C99.4115 37.7715 99.1836 37.9141 98.8702 37.9711C98.5568 38.0281 98.2719 37.9711 98.0439 37.8001C97.7875 37.629 97.6451 37.4009 97.5881 37.0873C97.5311 36.8022 97.5881 36.5171 97.759 36.2605ZM100.694 35.7188C100.865 35.4622 101.092 35.3196 101.406 35.2626C101.719 35.2056 102.004 35.2626 102.232 35.4337C102.489 35.6047 102.631 35.8328 102.688 36.1464C102.745 36.46 102.688 36.7452 102.517 36.9732C102.346 37.2298 102.118 37.3724 101.805 37.4294C101.491 37.4864 101.206 37.4294 100.978 37.2583C100.722 37.0873 100.58 36.8592 100.523 36.5456C100.466 36.232 100.523 35.9754 100.694 35.7188Z" fill="white"/>
    <path d="M107.759 40.6792C108.016 39.9949 108.358 39.3962 108.842 38.883C109.326 38.3698 109.868 37.9706 110.551 37.6285C111.235 37.3149 111.947 37.1438 112.717 37.0868C113.486 37.0583 114.227 37.1723 114.91 37.4289C115.594 37.6855 116.221 38.0847 116.734 38.5694L115.623 39.9379C114.853 39.1396 113.913 38.7404 112.802 38.7974C112.118 38.826 111.52 39.0255 110.979 39.3962C110.437 39.7668 110.01 40.2515 109.725 40.8217C109.44 41.4204 109.298 42.0477 109.326 42.7034C109.355 43.3877 109.554 43.9864 109.896 44.5566C110.238 45.1268 110.722 45.5545 111.292 45.8396C111.862 46.1532 112.489 46.2958 113.144 46.2673C113.628 46.2387 114.113 46.1247 114.569 45.8681C115.024 45.6115 115.423 45.3264 115.765 44.9558L116.933 46.2102C116.449 46.7234 115.879 47.1226 115.252 47.4362C114.626 47.7498 113.942 47.9209 113.229 47.9494C112.232 48.0064 111.292 47.8068 110.437 47.3507C109.583 46.923 108.87 46.2958 108.358 45.469C107.816 44.6421 107.531 43.7298 107.503 42.7319C107.389 42.0762 107.503 41.3634 107.759 40.6792Z" fill="white"/>
    <path d="M118.785 37.229L120.637 37.4001L120.21 42.0473L124.598 37.7707L126.934 37.9703L121.777 42.7886L126.364 48.4908L123.885 48.2627L120.067 43.4158L119.669 47.8635L117.817 47.6925L118.785 37.229Z" fill="white"/>
    <path d="M131.777 42.077C132.233 41.5067 132.775 41.0506 133.373 40.7084C133.971 40.3663 134.655 40.1667 135.396 40.0812C136.137 39.9957 136.877 40.0527 137.618 40.2808C138.359 40.5089 139.014 40.851 139.584 41.3072C140.154 41.7633 140.61 42.3336 140.98 42.9608L139.555 43.8731C139.327 43.3599 138.986 42.9608 138.587 42.6472C138.159 42.3336 137.704 42.077 137.219 41.9344C136.535 41.7348 135.88 41.7348 135.225 41.9059C134.57 42.077 134.028 42.3906 133.572 42.8468C133.116 43.3029 132.775 43.8731 132.604 44.5289C132.319 45.5268 132.404 46.4676 132.889 47.38C133.373 48.2638 134.142 48.8625 135.168 49.1761C135.937 49.4042 136.649 49.3757 137.276 49.0621C137.903 48.7485 138.387 48.1783 138.729 47.3229L135.481 46.3536L135.994 44.6429L140.951 46.0685L140.61 47.2374C140.41 47.8932 140.154 48.4919 139.783 49.0051C139.413 49.5183 138.986 49.9744 138.501 50.3166C137.988 50.6587 137.419 50.8868 136.763 50.9723C136.108 51.0579 135.396 51.0008 134.655 50.7727C133.914 50.5447 133.23 50.2025 132.661 49.7464C132.062 49.2902 131.606 48.7485 131.265 48.1498C130.923 47.551 130.695 46.8953 130.609 46.154C130.524 45.4412 130.581 44.7 130.78 43.9872C130.98 43.2744 131.322 42.6472 131.777 42.077Z" fill="white"/>
    <path d="M147.362 44.0156L149.1 44.8139L148.587 56.1327L146.735 55.3059L146.877 52.8825L142.746 51.0008L141.037 52.7114L139.185 51.8846L147.362 44.0156ZM146.991 50.9722L147.276 46.4961L144.085 49.6608L146.991 50.9722Z" fill="white"/>
    <path d="M154.484 47.4653L158.103 49.7177C158.986 50.2594 159.556 50.9436 159.755 51.7134C159.955 52.4832 159.812 53.2815 159.299 54.0798C158.872 54.7641 158.359 55.2203 157.704 55.4483C157.048 55.6764 156.393 55.6479 155.652 55.3343L155.51 60.5233L153.743 59.4113L153.886 54.3364L152.803 53.6807L150.496 57.3871L148.9 56.3892L154.484 47.4653ZM155.823 53.4526C156.194 53.6807 156.564 53.7662 156.877 53.7092C157.219 53.6522 157.476 53.4526 157.704 53.1105C157.903 52.7683 157.989 52.4262 157.875 52.0841C157.761 51.7419 157.533 51.4568 157.162 51.2288L155.083 49.9458L153.715 52.1411L155.823 53.4526Z" fill="white"/>
    <path d="M165.254 54.8213L166.736 56.0187L163.317 66.8528L161.75 65.5698L162.491 63.2605L158.986 60.3809L156.907 61.5783L155.34 60.2954L165.254 54.8213ZM163.089 61.4643L164.514 57.2162L160.61 59.44L163.089 61.4643Z" fill="white"/>
    <path d="M171.351 60.0391L172.918 61.7782L171.009 70.8446L176.565 65.7982L177.819 67.1668L170.012 74.2659L168.702 72.8119L170.753 63.1182L164.798 68.5068L163.545 67.1382L171.351 60.0391Z" fill="white"/>
    <path d="M179.186 68.9907L184.001 76.1469L182.52 77.1448L180.639 74.3507L173.374 79.2546L172.32 77.715L179.585 72.8397L177.676 70.0171L179.186 68.9907Z" fill="white"/>
    <path d="M184.913 77.9146L185.796 79.5397L176.565 84.6146L175.682 82.9895L184.913 77.9146Z" fill="white"/>
    <path d="M187.079 81.9629L189.785 88.0642L188.133 88.8055L186.195 84.4148L184.059 85.3557L185.597 88.834L183.945 89.5753L182.406 86.0969L179.842 87.2374L181.779 91.628L180.127 92.3693L177.42 86.268L187.079 81.9629Z" fill="white"/>
    <path d="M139.284 121.328C136.436 121.328 133.942 120.587 131.801 119.105C129.677 117.608 128.02 115.522 126.829 112.849C125.638 110.16 125.043 107.028 125.043 103.453C125.043 100.039 125.638 97.0356 126.829 94.4429C128.02 91.8342 129.677 89.8052 131.801 88.3558C133.942 86.8904 136.436 86.1577 139.284 86.1577C142.149 86.1577 144.643 86.8904 146.767 88.3558C148.908 89.8213 150.565 91.8583 151.74 94.4671C152.931 97.0598 153.526 100.055 153.526 103.453C153.526 107.028 152.931 110.16 151.74 112.849C150.565 115.522 148.908 117.608 146.767 119.105C144.643 120.587 142.149 121.328 139.284 121.328ZM139.284 115.772C140.813 115.772 142.181 115.353 143.388 114.516C144.611 113.679 145.576 112.358 146.285 110.554C146.993 108.735 147.347 106.368 147.347 103.453C147.347 99.4431 146.574 96.472 145.029 94.5396C143.501 92.591 141.586 91.6168 139.284 91.6168C136.999 91.6168 135.084 92.583 133.539 94.5154C131.995 96.4317 131.222 99.4109 131.222 103.453C131.222 106.335 131.576 108.686 132.284 110.506C132.992 112.31 133.95 113.638 135.157 114.492C136.38 115.345 137.756 115.772 139.284 115.772Z" fill="white"/>
    <path d="M107.612 121.328C104.764 121.328 102.269 120.587 100.129 119.105C98.0049 117.608 96.3474 115.522 95.1566 112.849C93.9658 110.16 93.3704 107.028 93.3704 103.453C93.3704 100.039 93.9658 97.0356 95.1566 94.4429C96.3474 91.8342 98.0049 89.8052 100.129 88.3558C102.269 86.8904 104.764 86.1577 107.612 86.1577C110.476 86.1577 112.971 86.8904 115.095 88.3558C117.235 89.8213 118.893 91.8583 120.067 94.4671C121.258 97.0598 121.854 100.055 121.854 103.453C121.854 107.028 121.258 110.16 120.067 112.849C118.893 115.522 117.235 117.608 115.095 119.105C112.971 120.587 110.476 121.328 107.612 121.328ZM107.612 115.772C109.141 115.772 110.509 115.353 111.716 114.516C112.939 113.679 113.904 112.358 114.612 110.554C115.32 108.735 115.674 106.368 115.674 103.453C115.674 99.4431 114.902 96.472 113.357 94.5396C111.828 92.591 109.913 91.6168 107.612 91.6168C105.327 91.6168 103.412 92.583 101.867 94.5154C100.322 96.4317 99.5498 99.4109 99.5498 103.453C99.5498 106.335 99.9038 108.686 100.612 110.506C101.32 112.31 102.277 113.638 103.484 114.492C104.707 115.345 106.083 115.772 107.612 115.772Z" fill="white"/>
    <path d="M82.1148 120.652V95.5784C81.4872 95.981 80.8194 96.3353 80.1113 96.6412C79.4194 96.9472 78.6711 97.1727 77.8665 97.3176L77.3354 92.1001C78.0274 91.9551 78.7998 91.6089 79.6527 91.0614C80.5056 90.5139 81.2941 89.8697 82.0183 89.129C82.7424 88.3721 83.2574 87.6072 83.5631 86.8342H88.2943V120.652H82.1148Z" fill="white"/>
    <path d="M139.079 146.72V125.115H152.527V128.263H142.488V133.865H150.399V137.013H142.488V143.572H152.82V146.72H139.079Z" fill="white"/>
    <path d="M126.342 147.153C124.224 147.153 122.358 146.69 120.744 145.764C119.14 144.838 117.886 143.531 116.981 141.844C116.087 140.157 115.64 138.171 115.64 135.887C115.64 133.624 116.118 131.653 117.074 129.976C118.04 128.289 119.366 126.988 121.053 126.072C122.739 125.146 124.672 124.683 126.851 124.683C128.003 124.683 129.103 124.807 130.151 125.053C131.2 125.29 132.11 125.583 132.881 125.933L132.526 129.004C131.714 128.665 130.84 128.382 129.905 128.155C128.969 127.929 127.967 127.816 126.897 127.816C125.16 127.816 123.731 128.176 122.61 128.896C121.49 129.606 120.657 130.573 120.112 131.797C119.577 133.012 119.31 134.37 119.31 135.872C119.31 137.446 119.582 138.845 120.127 140.069C120.682 141.294 121.52 142.261 122.641 142.971C123.762 143.67 125.175 144.02 126.882 144.02C127.345 144.02 127.879 143.984 128.486 143.912C129.092 143.83 129.673 143.701 130.229 143.526V138.804H127.005V135.887H133.591V145.517C132.778 145.97 131.75 146.355 130.506 146.674C129.262 146.993 127.874 147.153 126.342 147.153Z" fill="white"/>
    <path d="M108.288 141.195H99.1271V138.186H108.288V141.195ZM103.245 128.402H104.17L97.7083 146.72H94.3155L102.026 125.115H105.388L113.099 146.72H109.706L103.245 128.402Z" fill="white"/>
    <path d="M84.2208 146.72V128.263H78.0058V125.115H93.7977V128.263H87.5828V146.72H84.2208Z" fill="white"/>
</svg>
