<svg width="32" height="30" viewBox="0 0 32 30" fill="none" xmlns="http://www.w3.org/2000/svg">
<path d="M28.367 1.54033C24.1485 5.19133 20.5795 8.66683 17.312 13.2013C15.871 15.2013 14.2685 17.5553 13.221 19.7778C12.623 20.9563 11.545 22.7978 11.1775 24.5683C9.16751 22.6983 7.00851 20.5758 4.79951 18.9133C3.22501 17.7288 -1.30999 20.1438 0.53601 21.5328C3.84451 24.0213 6.59601 27.1208 9.81401 29.7203C11.16 30.8063 14.143 28.4478 14.844 27.4583C17.145 24.1983 17.4595 20.2133 19.1365 16.6573C21.697 11.2188 26.238 6.75133 30.7215 2.87183C33.692 0.101325 30.624 -0.409675 28.3715 1.54033" fill="#37B34A"/>
</svg>
