<svg width="24" height="24" viewBox="0 0 24 24" fill="none" xmlns="http://www.w3.org/2000/svg">
<path d="M10.0821 17.2112L18.6103 8.68304L17.6667 7.73944L10.0821 15.324L6.28207 11.524L5.33847 12.4676L10.0821 17.2112ZM12.0045 24.001C10.3451 24.001 8.78496 23.6861 7.32413 23.0563C5.86331 22.4266 4.59259 21.5719 3.51197 20.4923C2.43137 19.4127 1.57589 18.1432 0.945533 16.6837C0.315178 15.2242 0 13.6648 0 12.0054C0 10.346 0.314878 8.78593 0.944634 7.32511C1.57441 5.86429 2.4291 4.59357 3.5087 3.51294C4.5883 2.43234 5.85782 1.57687 7.31727 0.946511C8.77673 0.316155 10.3362 0.000976562 11.9955 0.000976562C13.6549 0.000976562 15.215 0.315854 16.6759 0.94561C18.1367 1.57539 19.4074 2.43008 20.488 3.50968C21.5686 4.58928 22.4241 5.8588 23.0545 7.31824C23.6848 8.77771 24 10.3371 24 11.9965C24 13.6559 23.6851 15.216 23.0554 16.6768C22.4256 18.1377 21.5709 19.4084 20.4913 20.489C19.4117 21.5696 18.1422 22.4251 16.6827 23.0554C15.2233 23.6858 13.6638 24.001 12.0045 24.001Z" fill="#9CB79A"/>
</svg>
