<svg width="24" height="24" viewBox="0 0 24 24" fill="none" xmlns="http://www.w3.org/2000/svg">
<path d="M14.0769 23.6103C13.8207 23.865 13.5033 23.9923 13.1245 23.9923C12.7458 23.9923 12.4291 23.865 12.1744 23.6103L0.441033 11.8769C0.299145 11.735 0.190167 11.5793 0.1141 11.4096C0.0380332 11.2399 0 11.059 0 10.8667V1.33333C0 0.976067 0.1329 0.664522 0.3987 0.3987C0.664522 0.1329 0.976067 0 1.33333 0H10.8667C11.0393 0 11.211 0.0351783 11.3817 0.105534C11.5525 0.175912 11.7004 0.270645 11.8256 0.389734L23.559 12.1308C23.8308 12.4026 23.9709 12.7312 23.9795 13.1167C23.988 13.5021 23.865 13.8222 23.6103 14.0769L14.0769 23.6103ZM13.1142 22.6667L22.659 13.1333L10.8781 1.33333H1.33333V10.8667L13.1142 22.6667ZM4.66367 6C5.0332 6 5.3483 5.87067 5.60897 5.612C5.86966 5.35331 6 5.03921 6 4.6697C6 4.30014 5.87067 3.98503 5.612 3.72437C5.35333 3.46368 5.03922 3.33333 4.66967 3.33333C4.30013 3.33333 3.98503 3.46267 3.72437 3.72133C3.46368 3.98002 3.33333 4.29412 3.33333 4.66363C3.33333 5.03319 3.46267 5.3483 3.72133 5.60897C3.98 5.86966 4.29411 6 4.66367 6Z" fill="white"/>
</svg>
