<svg width="40" height="20" viewBox="0 0 40 20" fill="none" xmlns="http://www.w3.org/2000/svg">
<rect width="40" height="20" rx="3" fill="white"/>
<g clip-path="url(#clip0_80_1079)">
<path d="M22.7941 14.8333H17.7734V5.81055H22.7942L22.7941 14.8333Z" fill="#6C6BBD"/>
<path d="M18.092 10.3223C18.092 8.492 18.9489 6.86159 20.2834 5.81088C19.2733 5.01438 18.0239 4.58209 16.7375 4.58399C13.5687 4.58399 11 7.15306 11 10.3223C11 13.4915 13.5687 16.0605 16.7375 16.0605C18.0239 16.0625 19.2734 15.6302 20.2835 14.8336C18.9491 13.7831 18.092 12.1526 18.092 10.3223Z" fill="#EB001B"/>
<path d="M29.5672 10.3223C29.5672 13.4915 26.9985 16.0605 23.8297 16.0605C22.5431 16.0624 21.2936 15.6301 20.2832 14.8336C21.6181 13.7829 22.475 12.1526 22.475 10.3223C22.475 8.49191 21.6181 6.86159 20.2832 5.81088C21.2935 5.0144 22.543 4.58212 23.8296 4.58399C26.9984 4.58399 29.5671 7.15306 29.5671 10.3223" fill="#0099DF"/>
</g>
<defs>
<clipPath id="clip0_80_1079">
<rect width="18.5654" height="14.4439" fill="white" transform="translate(11 2.77832)"/>
</clipPath>
</defs>
</svg>
