<svg width="18" height="20" viewBox="0 0 18 20" fill="none" xmlns="http://www.w3.org/2000/svg">
<path d="M5.3077 19.1154C4.8859 19.1154 4.53045 18.9708 4.24135 18.6817C3.95223 18.3926 3.80768 18.0372 3.80768 17.6154C3.80768 17.1936 3.95223 16.8382 4.24135 16.5491C4.53045 16.2599 4.8859 16.1154 5.3077 16.1154C5.72948 16.1154 6.08493 16.2599 6.37405 16.5491C6.66315 16.8382 6.8077 17.1936 6.8077 17.6154C6.8077 18.0372 6.66315 18.3926 6.37405 18.6817C6.08493 18.9708 5.72948 19.1154 5.3077 19.1154ZM14.6923 19.1154C14.2705 19.1154 13.9151 18.9708 13.626 18.6817C13.3369 18.3926 13.1923 18.0372 13.1923 17.6154C13.1923 17.1936 13.3369 16.8382 13.626 16.5491C13.9151 16.2599 14.2705 16.1154 14.6923 16.1154C15.1141 16.1154 15.4696 16.2599 15.7587 16.5491C16.0478 16.8382 16.1923 17.1936 16.1923 17.6154C16.1923 18.0372 16.0478 18.3926 15.7587 18.6817C15.4696 18.9708 15.1141 19.1154 14.6923 19.1154ZM3.88078 3.5L6.55 9.11538H13.1846C13.3 9.11538 13.4026 9.08653 13.4923 9.02885C13.5821 8.97115 13.659 8.89103 13.7231 8.78848L16.3385 4.03845C16.4154 3.89743 16.4218 3.77244 16.3577 3.66348C16.2936 3.55449 16.1846 3.5 16.0308 3.5H3.88078ZM3.3923 2.5H16.4116C16.8462 2.5 17.1731 2.67724 17.3923 3.03172C17.6115 3.38621 17.6231 3.75128 17.4269 4.12693L14.5692 9.33463C14.4244 9.57821 14.2362 9.76923 14.0048 9.9077C13.7734 10.0462 13.5192 10.1154 13.2423 10.1154H6.1L4.88463 12.3462C4.78206 12.5 4.77885 12.6667 4.875 12.8462C4.97115 13.0256 5.11538 13.1154 5.3077 13.1154H16.1923V14.1154H5.3077C4.72437 14.1154 4.28911 13.8696 4.00192 13.3779C3.71474 12.8862 3.70769 12.3923 3.98078 11.8962L5.4846 9.21538L1.80768 1.5H0V0.5H2.4423L3.3923 2.5Z" fill="black"/>
</svg>
