<svg width="40" height="20" viewBox="0 0 40 20" fill="none" xmlns="http://www.w3.org/2000/svg">
<rect width="40" height="20" rx="3" fill="white"/>
<g clip-path="url(#clip0_80_1045)">
<path d="M25.4298 7.59411C26.1445 7.59411 26.6969 7.78905 27.1193 8.17895C27.5416 8.5688 27.7365 9.08865 27.7365 9.73844V12.8574H26.8268V12.1427H26.7943C26.4045 12.7276 25.8521 13.02 25.2023 13.02C24.65 13.02 24.1626 12.8575 23.7728 12.5326C23.4154 12.2077 23.1879 11.7529 23.1879 11.2655C23.1879 10.7457 23.3829 10.3233 23.7728 9.99839C24.1626 9.6735 24.715 9.54355 25.3648 9.54355C25.9496 9.54355 26.4045 9.64105 26.7618 9.86845V9.64105C26.7618 9.33778 26.6486 9.03457 26.4222 8.83698L26.3719 8.7963C26.112 8.56885 25.7871 8.4389 25.4298 8.4389C24.8774 8.4389 24.4551 8.66635 24.1626 9.1212L23.3179 8.60125C23.8377 7.91895 24.52 7.59411 25.4298 7.59411ZM20.8487 5.38482C21.4317 5.38482 21.9857 5.58769 22.4286 5.96601L22.5057 6.03456C22.9605 6.42446 23.1879 7.00931 23.1879 7.62661C23.1879 8.2439 22.9605 8.79625 22.5057 9.2186C22.0508 9.641 21.4985 9.86839 20.8487 9.86839L19.2892 9.83589V12.8575H18.3145V5.38477L20.8487 5.38482ZM25.5597 10.3233C25.1698 10.3233 24.8449 10.4207 24.585 10.6157C24.3251 10.7781 24.1951 11.0055 24.1951 11.2979C24.1951 11.5579 24.3251 11.7853 24.52 11.9153C24.7475 12.0777 25.0074 12.1752 25.2673 12.1752C25.6312 12.1752 25.9951 12.0337 26.2797 11.7771L26.3395 11.7203C26.6644 11.4279 26.8268 11.0705 26.8268 10.6806C26.5344 10.4532 26.112 10.3232 25.5597 10.3232L25.5597 10.3233ZM20.9137 6.29451H19.2892V8.89375H20.9137C21.271 8.89375 21.6284 8.7638 21.8559 8.5039C22.3757 8.01655 22.3757 7.20431 21.8884 6.71691L21.8559 6.68441C21.5959 6.42451 21.271 6.26206 20.9136 6.29456L20.9137 6.29451ZM32.9999 7.75655L29.7834 15.1318H28.8087L30.0108 12.5651L27.899 7.78905H28.9387L30.4656 11.4604H30.4981L31.9927 7.78905H32.9999V7.75655Z" fill="#504B4B"/>
<path d="M15.423 9.18579C15.423 8.89339 15.3905 8.60099 15.358 8.30859H11.2969V9.96559H13.6036C13.5062 10.4854 13.2138 10.9727 12.7589 11.2652V12.3373H14.156C14.9682 11.5901 15.4231 10.4854 15.4231 9.18584L15.423 9.18579Z" fill="#4285F4"/>
<path d="M11.2968 13.3768C12.4664 13.3768 13.4411 12.9869 14.1559 12.3371L12.7588 11.265C12.3689 11.5249 11.8816 11.6873 11.2968 11.6873C10.1921 11.6873 9.2174 10.9401 8.8925 9.90039H7.46301V11.005C8.21026 12.4671 9.6723 13.3768 11.2968 13.3768Z" fill="#34A853"/>
<path d="M8.8925 9.90031C8.6976 9.38046 8.6976 8.79566 8.8925 8.24332V7.13867H7.46301C6.84566 8.34082 6.84566 9.77036 7.46301 11.005L8.8925 9.90031Z" fill="#FBBC04"/>
<path d="M11.2964 6.48909C11.9137 6.48909 12.4985 6.71654 12.9534 7.13888L14.188 5.90429C13.4082 5.18949 12.3686 4.76715 11.3289 4.7996C9.70441 4.7996 8.20991 5.70934 7.49512 7.17138L8.92466 8.27603C9.21706 7.23633 10.1918 6.48909 11.2964 6.48909Z" fill="#EA4335"/>
</g>
<defs>
<clipPath id="clip0_80_1045">
<rect width="26" height="10.3594" fill="white" transform="translate(7 4.79785)"/>
</clipPath>
</defs>
</svg>
