<svg width="40" height="20" viewBox="0 0 40 20" fill="none" xmlns="http://www.w3.org/2000/svg">
<rect width="40" height="20" rx="3" fill="#286CB4"/>
<path d="M12.8013 8.77575L13.3927 10.2386H12.21L12.8013 8.77575ZM25.1269 8.83833H22.8461V9.48761H25.0885V10.4576H22.8461V11.1773H25.1269V11.7562L26.7165 10.0039L25.1269 8.1734V8.83833ZM14.3449 7.00782H17.409L18.0925 8.5176L18.7222 7H26.6705L27.4998 7.9309L28.3523 7H32L29.3045 10.0117L31.977 13H28.2678L27.4384 12.0691L26.5783 13H13.6154L13.2391 12.0691H12.3713L11.995 13H9L11.5189 7H14.1452L14.3449 7.00782ZM20.9876 7.85267H19.2674L18.1155 10.6141L16.8715 7.85267H15.1666V11.6076L13.5846 7.85267H12.0564L10.2287 12.1551H11.419L11.7953 11.2242H13.7997L14.176 12.1551H16.2648V9.08083L17.6087 12.1551H18.5225L19.8588 9.08866V12.1551H20.98L20.9876 7.85267ZM28.1449 10.0117L30.0878 7.85267H28.6901L27.4614 9.19817L26.2711 7.85267H21.7556V12.163H26.2097L27.4461 10.8018L28.6364 12.163H30.0725L28.1449 10.0117Z" fill="white"/>
</svg>
