<svg width="40" height="20" viewBox="0 0 40 20" fill="none" xmlns="http://www.w3.org/2000/svg">
<rect width="40" height="20" rx="3" fill="white"/>
<g clip-path="url(#clip0_80_1054)">
<path d="M16.0397 7.93555H14.4068C14.3527 7.93551 14.3004 7.95479 14.2593 7.98989C14.2182 8.025 14.191 8.07364 14.1826 8.12704L13.5221 12.3142C13.5191 12.3337 13.5203 12.3535 13.5257 12.3724C13.5311 12.3914 13.5405 12.4089 13.5533 12.4238C13.5661 12.4387 13.582 12.4507 13.5998 12.4589C13.6177 12.4671 13.6371 12.4714 13.6568 12.4713H14.4364C14.4905 12.4714 14.5428 12.4521 14.5839 12.4169C14.625 12.3817 14.6522 12.3331 14.6606 12.2796L14.8387 11.1503C14.847 11.0969 14.8742 11.0482 14.9153 11.0131C14.9563 10.9779 15.0086 10.9586 15.0626 10.9585H15.5796C16.6552 10.9585 17.276 10.438 17.4381 9.40657C17.5112 8.95531 17.4412 8.60074 17.2299 8.35243C16.9978 8.07976 16.5862 7.93555 16.0397 7.93555ZM16.228 9.46483C16.1388 10.0508 15.6911 10.0508 15.2582 10.0508H15.0118L15.1847 8.9565C15.1897 8.92449 15.206 8.89533 15.2307 8.87428C15.2553 8.85322 15.2867 8.84166 15.3191 8.84166H15.432C15.7269 8.84166 16.005 8.84166 16.1488 9.00974C16.2345 9.11003 16.2608 9.25901 16.228 9.46483ZM20.9207 9.44597H20.1388C20.1063 9.44597 20.075 9.45753 20.0504 9.47859C20.0257 9.49964 20.0094 9.5288 20.0043 9.56081L19.9697 9.77952L19.915 9.70025C19.7458 9.45456 19.3683 9.37243 18.9915 9.37243C18.1274 9.37243 17.3894 10.0269 17.2457 10.9449C17.1709 11.4029 17.2772 11.8408 17.537 12.1461C17.7752 12.4269 18.1162 12.5439 18.5219 12.5439C19.2181 12.5439 19.6042 12.0962 19.6042 12.0962L19.5693 12.3135C19.5662 12.3329 19.5673 12.3528 19.5727 12.3718C19.578 12.3907 19.5873 12.4083 19.6001 12.4232C19.6128 12.4382 19.6287 12.4503 19.6465 12.4585C19.6644 12.4668 19.6838 12.4711 19.7035 12.4711H20.4078C20.4619 12.4711 20.5143 12.4518 20.5554 12.4167C20.5965 12.3815 20.6237 12.3328 20.632 12.2794L21.0547 9.60307C21.0578 9.58369 21.0566 9.56386 21.0513 9.54496C21.046 9.52606 21.0367 9.50854 21.024 9.4936C21.0112 9.47866 20.9954 9.46666 20.9776 9.45844C20.9597 9.45022 20.9403 9.44596 20.9207 9.44597ZM19.8308 10.9678C19.7553 11.4146 19.4007 11.7145 18.9485 11.7145C18.7215 11.7145 18.54 11.6416 18.4235 11.5036C18.3079 11.3666 18.264 11.1715 18.3008 10.9542C18.3712 10.5113 18.7317 10.2017 19.177 10.2017C19.3991 10.2017 19.5796 10.2754 19.6985 10.4146C19.8176 10.5553 19.8649 10.7515 19.8308 10.9678ZM25.0852 9.44597H24.2995C24.2624 9.44602 24.2259 9.45512 24.1932 9.47247C24.1604 9.48982 24.1324 9.5149 24.1115 9.54553L23.0278 11.1419L22.5684 9.60785C22.5543 9.56106 22.5255 9.52005 22.4863 9.4909C22.4471 9.46174 22.3995 9.44599 22.3507 9.44597H21.5785C21.5568 9.44591 21.5355 9.45103 21.5162 9.4609C21.4969 9.47077 21.4802 9.48511 21.4676 9.50272C21.4549 9.52033 21.4467 9.54071 21.4435 9.56215C21.4403 9.58359 21.4423 9.60548 21.4493 9.62599L22.3149 12.166L21.5011 13.3147C21.4867 13.335 21.4781 13.359 21.4764 13.3839C21.4746 13.4088 21.4797 13.4337 21.4912 13.4559C21.5027 13.4781 21.52 13.4967 21.5414 13.5097C21.5627 13.5227 21.5872 13.5296 21.6122 13.5295H22.397C22.4336 13.5296 22.4697 13.5208 22.5022 13.5038C22.5347 13.4868 22.5626 13.4622 22.5835 13.4321L25.197 9.65966C25.2111 9.63925 25.2194 9.61535 25.221 9.59056C25.2225 9.56576 25.2173 9.54101 25.2058 9.519C25.1943 9.49698 25.1769 9.47854 25.1557 9.46566C25.1344 9.45279 25.1101 9.44598 25.0852 9.44597Z" fill="#253B80"/>
<path d="M27.687 7.93579H26.0539C25.9999 7.93581 25.9476 7.95511 25.9066 7.99021C25.8655 8.02531 25.8384 8.07392 25.8299 8.12727L25.1695 12.3145C25.1664 12.3339 25.1676 12.3537 25.1729 12.3726C25.1783 12.3915 25.1876 12.409 25.2004 12.424C25.2132 12.4389 25.229 12.4509 25.2468 12.4591C25.2647 12.4673 25.2841 12.4716 25.3037 12.4716H26.1418C26.1796 12.4715 26.2161 12.458 26.2448 12.4334C26.2735 12.4088 26.2925 12.3747 26.2984 12.3374L26.4858 11.1505C26.4942 11.0971 26.5213 11.0484 26.5624 11.0133C26.6035 10.9781 26.6557 10.9588 26.7098 10.9588H27.2265C28.3023 10.9588 28.9229 10.4383 29.0852 9.40681C29.1585 8.95555 29.0881 8.60098 28.8768 8.35267C28.645 8.08 28.2336 7.93579 27.687 7.93579ZM27.8754 9.46507C27.7864 10.051 27.3387 10.051 26.9056 10.051H26.6594L26.8325 8.95674C26.8375 8.92472 26.8537 8.89554 26.8783 8.87448C26.903 8.85341 26.9343 8.84185 26.9667 8.84189H27.0796C27.3743 8.84189 27.6527 8.84189 27.7964 9.00998C27.8821 9.11026 27.9081 9.25925 27.8754 9.46507ZM32.5679 9.4462H31.7864C31.754 9.44612 31.7226 9.45766 31.698 9.47873C31.6734 9.49981 31.6571 9.52901 31.6522 9.56105L31.6176 9.77976L31.5627 9.70049C31.3934 9.4548 31.0161 9.37267 30.6394 9.37267C29.7753 9.37267 29.0375 10.0271 28.8938 10.9452C28.8193 11.4031 28.925 11.841 29.1848 12.1464C29.4236 12.4272 29.764 12.5442 30.1697 12.5442C30.8659 12.5442 31.252 12.0965 31.252 12.0965L31.2172 12.3138C31.2141 12.3332 31.2152 12.3531 31.2205 12.3721C31.2259 12.3911 31.2353 12.4087 31.2481 12.4237C31.2609 12.4386 31.2768 12.4507 31.2947 12.4589C31.3126 12.4671 31.3321 12.4714 31.3518 12.4713H32.0559C32.11 12.4713 32.1623 12.452 32.2033 12.4168C32.2444 12.3817 32.2715 12.333 32.2799 12.2796L32.7028 9.60331C32.7058 9.58387 32.7045 9.56401 32.6991 9.54509C32.6937 9.52617 32.6843 9.50865 32.6714 9.49372C32.6586 9.4788 32.6427 9.46682 32.6249 9.45862C32.607 9.45042 32.5875 9.44618 32.5679 9.4462ZM31.4779 10.9681C31.4029 11.4148 31.0479 11.7147 30.5957 11.7147C30.3691 11.7147 30.1871 11.6419 30.0706 11.5039C29.9551 11.3668 29.9116 11.1718 29.9479 10.9545C30.0188 10.5116 30.3789 10.2019 30.8242 10.2019C31.0462 10.2019 31.2267 10.2757 31.3456 10.4149C31.4652 10.5555 31.5125 10.7518 31.4779 10.9681ZM33.4897 8.05063L32.8195 12.3145C32.8164 12.3339 32.8176 12.3537 32.8229 12.3726C32.8283 12.3915 32.8376 12.409 32.8504 12.424C32.8631 12.4389 32.879 12.4509 32.8968 12.4591C32.9147 12.4673 32.9341 12.4716 32.9537 12.4716H33.6275C33.7395 12.4716 33.8345 12.3904 33.8517 12.2799L34.5126 8.09289C34.5157 8.07348 34.5145 8.05364 34.5092 8.03473C34.5038 8.01582 34.4945 7.99828 34.4817 7.98333C34.469 7.96838 34.4531 7.95637 34.4353 7.94812C34.4175 7.93987 34.398 7.93558 34.3784 7.93555H33.6239C33.5915 7.93566 33.5602 7.94731 33.5356 7.96839C33.511 7.98948 33.4948 8.01863 33.4897 8.05063Z" fill="#179BD7"/>
<path d="M6.74129 13.2848L6.86617 12.4916L6.58801 12.4852H5.25977L6.18283 6.63235C6.18557 6.61447 6.19466 6.59817 6.20842 6.58642C6.22218 6.57467 6.23971 6.56827 6.2578 6.56836H8.4974C9.24091 6.56836 9.75401 6.72308 10.0219 7.02846C10.1475 7.17172 10.2275 7.32142 10.2662 7.48617C10.3068 7.65903 10.3075 7.86556 10.2678 8.11746L10.265 8.13584V8.29725L10.3906 8.3684C10.4864 8.41697 10.5726 8.48268 10.6448 8.56228C10.7523 8.68476 10.8218 8.84044 10.8511 9.025C10.8815 9.21482 10.8714 9.44069 10.8218 9.6964C10.7645 9.99056 10.6718 10.2468 10.5467 10.4564C10.4363 10.6442 10.2879 10.8068 10.111 10.9339C9.94479 11.0519 9.74733 11.1414 9.52409 11.1987C9.30777 11.2551 9.06112 11.2835 8.7906 11.2835H8.61631C8.49167 11.2835 8.37062 11.3284 8.27559 11.4088C8.1807 11.4901 8.11775 11.6025 8.09795 11.7259L8.08482 11.7973L7.8642 13.1952L7.85417 13.2466C7.85155 13.2628 7.84701 13.2709 7.84032 13.2764C7.83385 13.2817 7.82577 13.2847 7.8174 13.2848H6.74129Z" fill="#253B80"/>
<path d="M10.5098 8.15527C10.5032 8.19801 10.4955 8.24171 10.4869 8.28659C10.1916 9.80298 9.18113 10.3268 7.89061 10.3268H7.23353C7.07571 10.3268 6.94272 10.4414 6.91812 10.5971L6.58171 12.7307L6.48644 13.3355C6.48264 13.3595 6.48409 13.384 6.49069 13.4074C6.49728 13.4308 6.50886 13.4524 6.52463 13.4709C6.5404 13.4894 6.55999 13.5042 6.58204 13.5144C6.6041 13.5246 6.62809 13.5298 6.65238 13.5298H7.81779C7.95579 13.5298 8.07302 13.4296 8.09475 13.2935L8.10621 13.2343L8.32564 11.8418L8.33972 11.7654C8.36121 11.6288 8.47868 11.5285 8.61669 11.5285H8.79099C9.9201 11.5285 10.804 11.0701 11.0623 9.74353C11.1703 9.18936 11.1144 8.72663 10.8288 8.4012C10.7383 8.30053 10.6302 8.21719 10.5098 8.15527Z" fill="#179BD7"/>
<path d="M10.2007 8.03188C10.1064 8.0046 10.0105 7.9833 9.9135 7.96813C9.72185 7.93867 9.52815 7.92454 9.33426 7.92587H7.57887C7.51206 7.92581 7.44744 7.94966 7.39669 7.9931C7.34594 8.03654 7.3124 8.09671 7.30214 8.16272L6.92871 10.5279L6.91797 10.5969C6.9296 10.5216 6.9678 10.453 7.02565 10.4034C7.0835 10.3538 7.15719 10.3266 7.23338 10.3266H7.89045C9.18097 10.3266 10.1914 9.80255 10.4868 8.2864C10.4956 8.24151 10.503 8.19782 10.5097 8.15508C10.4318 8.11421 10.3505 8.07995 10.2669 8.05265C10.2449 8.04537 10.2229 8.03845 10.2007 8.03188Z" fill="#222D65"/>
<path d="M7.30229 8.16246C7.31246 8.09643 7.34598 8.03624 7.39676 7.99282C7.44754 7.9494 7.51221 7.92564 7.57902 7.92585H9.33441C9.54237 7.92585 9.73649 7.93946 9.91365 7.96811C10.0335 7.98695 10.1518 8.01513 10.2673 8.05239C10.3544 8.08128 10.4353 8.11542 10.5101 8.15482C10.5979 7.59444 10.5094 7.2129 10.2064 6.86741C9.87234 6.48706 9.26946 6.32422 8.49802 6.32422H6.25841C6.10083 6.32422 5.96641 6.43883 5.94205 6.59474L5.0092 12.5077C5.00486 12.5352 5.00651 12.5632 5.01405 12.59C5.02159 12.6167 5.03483 12.6416 5.05287 12.6627C5.0709 12.6838 5.09331 12.7008 5.11854 12.7125C5.14377 12.7242 5.17122 12.7302 5.19902 12.7302H6.5817L6.92886 10.5277L7.30229 8.16246Z" fill="#253B80"/>
</g>
<defs>
<clipPath id="clip0_80_1054">
<rect width="29.5188" height="7.852" fill="white" transform="translate(5 6.00098)"/>
</clipPath>
</defs>
</svg>
