<?xml version="1.0"?>
<svg width="40" height="20" xmlns="http://www.w3.org/2000/svg" xmlns:svg="http://www.w3.org/2000/svg">
    <g class="layer">
        <title>Layer 1</title>
        <rect fill="white" height="20" id="svg_1" rx="3" width="40"/>
        <path d="m18.55,14.03l-1.79,0l1.12,-6.86l1.78,0l-1.11,6.86zm-3.29,-6.86l-1.7,4.72l-0.21,-1.01l0,0l-0.6,-3.09c0,0 -0.07,-0.62 -0.84,-0.62l-2.82,0l-0.03,0.12c0,0 0.86,0.18 1.87,0.78l1.55,5.96l1.86,0l2.84,-6.86l-1.92,0zm14.04,6.86l1.64,0l-1.43,-6.86l-1.43,0c-0.67,0 -0.83,0.52 -0.83,0.52l-2.66,6.34l1.86,0l0.37,-1.02l2.27,0l0.21,1.02zm-1.96,-2.42l0.93,-2.57l0.53,2.57l-1.46,0zm-2.61,-2.79l0.25,-1.47c0,0 -0.78,-0.3 -1.6,-0.3c-0.89,0 -2.99,0.39 -2.99,2.27c0,1.77 2.47,1.8 2.47,2.73c0,0.93 -2.22,0.76 -2.95,0.17l-0.26,1.54c0,0 0.79,0.39 2.01,0.39c1.22,0 3.06,-0.63 3.06,-2.35c0,-1.78 -2.49,-1.95 -2.49,-2.72c0,-0.78 1.73,-0.68 2.5,-0.26z" fill="#2566AF" id="svg_2" transform="matrix(1 0 0 1 0 0)"/>
        <path d="m13.35,10.88l-0.6,-3.09c0,0 -0.07,-0.62 -0.84,-0.62l-2.82,0l-0.03,0.12c0,0 1.35,0.28 2.65,1.33c1.24,1 1.64,2.26 1.64,2.26z" fill="#E6A540" id="svg_3"/>
    </g>
</svg>