<svg width="40" height="20" viewBox="0 0 40 20" fill="none" xmlns="http://www.w3.org/2000/svg">
<rect width="40" height="20" rx="3" fill="white"/>
<path d="M12.6785 6.48527C12.408 6.80532 11.9753 7.05775 11.5426 7.02169C11.4885 6.58894 11.7003 6.12916 11.9483 5.84517C12.2187 5.5161 12.692 5.2817 13.0752 5.26367C13.1203 5.71444 12.9445 6.1562 12.6785 6.48527ZM13.0707 7.10733C12.4441 7.07127 11.9077 7.46344 11.6102 7.46344C11.3082 7.46344 10.8529 7.12536 10.357 7.13438C9.71242 7.1434 9.11289 7.50852 8.78383 8.09002C8.10767 9.25301 8.60803 10.975 9.26165 11.9216C9.5817 12.3904 9.96485 12.9043 10.4697 12.8862C10.9475 12.8682 11.1369 12.5752 11.7139 12.5752C12.2953 12.5752 12.4621 12.8862 12.967 12.8772C13.4899 12.8682 13.819 12.4084 14.139 11.9396C14.5041 11.4077 14.6529 10.8893 14.6619 10.8623C14.6529 10.8533 13.6522 10.4701 13.6432 9.31612C13.6341 8.35147 14.432 7.89168 14.4681 7.86463C14.0173 7.19749 13.3141 7.12536 13.0707 7.10733ZM16.6904 5.80009V12.8276H17.7813V10.425H19.2913C20.6707 10.425 21.6399 9.4784 21.6399 8.10805C21.6399 6.7377 20.6887 5.80009 19.3274 5.80009H16.6904ZM17.7813 6.71967H19.0389C19.9855 6.71967 20.5265 7.22453 20.5265 8.11256C20.5265 9.00058 19.9855 9.50995 19.0344 9.50995H17.7813V6.71967ZM23.6323 12.8817C24.3175 12.8817 24.9531 12.5346 25.2416 11.9847H25.2641V12.8276H26.2738V9.32965C26.2738 8.31541 25.4624 7.66178 24.2138 7.66178C23.0553 7.66178 22.1988 8.32442 22.1673 9.23498H23.15C23.2311 8.80224 23.6323 8.51825 24.1822 8.51825C24.8494 8.51825 25.2235 8.82929 25.2235 9.40177V9.78943L23.8622 9.87057C22.5955 9.9472 21.9103 10.4656 21.9103 11.3671C21.9103 12.2777 22.6181 12.8817 23.6323 12.8817ZM23.9253 12.0478C23.3438 12.0478 22.9742 11.7683 22.9742 11.3401C22.9742 10.8983 23.3303 10.6414 24.0109 10.6008L25.2235 10.5242V10.9209C25.2235 11.579 24.6646 12.0478 23.9253 12.0478ZM27.6216 14.7389C28.6855 14.7389 29.1858 14.3332 29.6231 13.1026L31.5389 7.7294H30.43L29.1452 11.881H29.1227L27.838 7.7294H26.6975L28.5457 12.8457L28.4465 13.1567C28.2798 13.6841 28.0093 13.887 27.527 13.887C27.4413 13.887 27.2745 13.8779 27.2069 13.8689V14.7119C27.27 14.7299 27.5405 14.7389 27.6216 14.7389Z" fill="black"/>
</svg>
