<svg width="30" height="30" viewBox="0 0 30 30" fill="none" xmlns="http://www.w3.org/2000/svg">
<path d="M16.4558 0.835727C17.4896 0.83176 18.5234 0.84215 19.5569 0.866894L19.8318 0.876811C20.1491 0.888144 20.4622 0.902311 20.8404 0.919311C22.3478 0.990144 23.3763 1.22814 24.2787 1.57806C25.2137 1.93789 26.0014 2.42523 26.789 3.21289C27.5092 3.92067 28.0666 4.77682 28.4224 5.72181C28.7724 6.62423 29.0103 7.65414 29.0812 9.16148C29.0982 9.53831 29.1123 9.85281 29.1237 10.1701L29.1322 10.445C29.1574 11.478 29.1682 12.5113 29.1648 13.5446L29.1662 14.6015V16.4573C29.1697 17.4911 29.1588 18.5249 29.1336 19.5584L29.1251 19.8332C29.1138 20.1506 29.0996 20.4636 29.0826 20.8419C29.0118 22.3492 28.7709 23.3777 28.4224 24.2801C28.0678 25.2261 27.5102 26.083 26.789 26.7905C26.0806 27.5106 25.224 28.068 24.2787 28.4239C23.3763 28.7738 22.3478 29.0118 20.8404 29.0826C20.4622 29.0996 20.1491 29.1138 19.8318 29.1251L19.5569 29.1336C18.5234 29.1588 17.4896 29.1697 16.4558 29.1662L15.399 29.1676H13.5446C12.5108 29.1711 11.477 29.1603 10.4435 29.1351L10.1687 29.1266C9.83238 29.1144 9.49615 29.1002 9.16002 29.0841C7.65268 29.0132 6.62418 28.7724 5.72035 28.4239C4.77498 28.0688 3.91869 27.5113 3.21143 26.7905C2.49041 26.0825 1.9325 25.2259 1.5766 24.2801C1.22668 23.3777 0.988682 22.3492 0.917849 20.8419C0.902071 20.5057 0.887904 20.1695 0.875349 19.8332L0.868265 19.5584C0.842147 18.5249 0.83034 17.4911 0.832849 16.4573V13.5446C0.828895 12.5113 0.839285 11.478 0.864015 10.445L0.873932 10.1701C0.885265 9.85281 0.899432 9.53831 0.916432 9.16148C0.987265 7.65273 1.22527 6.62564 1.57518 5.72181C1.93129 4.77636 2.4903 3.92044 3.21285 3.21431C3.91962 2.49288 4.77538 1.93446 5.72035 1.57806C6.62418 1.22814 7.65126 0.990144 9.16002 0.919311L10.1687 0.876811L10.4435 0.869728C11.4765 0.843622 12.5098 0.831816 13.5432 0.834311L16.4558 0.835727ZM14.9995 7.91906C14.061 7.90579 13.1292 8.07918 12.2582 8.42916C11.3873 8.77914 10.5946 9.29872 9.92621 9.95772C9.25783 10.6167 8.72708 11.402 8.36482 12.2679C8.00256 13.1338 7.81601 14.0631 7.81601 15.0017C7.81601 15.9403 8.00256 16.8696 8.36482 17.7355C8.72708 18.6014 9.25783 19.3867 9.92621 20.0457C10.5946 20.7046 11.3873 21.2242 12.2582 21.5742C13.1292 21.9242 14.061 22.0976 14.9995 22.0843C16.8781 22.0843 18.6798 21.338 20.0082 20.0097C21.3366 18.6813 22.0828 16.8796 22.0828 15.001C22.0828 13.1224 21.3366 11.3207 20.0082 9.9923C18.6798 8.66392 16.8781 7.91906 14.9995 7.91906ZM14.9995 10.7524C15.5641 10.742 16.125 10.8442 16.6496 11.053C17.1743 11.2619 17.652 11.5731 18.055 11.9687C18.4579 12.3642 18.778 12.8361 18.9966 13.3567C19.2151 13.8773 19.3277 14.4363 19.3278 15.001C19.3279 15.5656 19.2155 16.1246 18.9971 16.6453C18.7787 17.166 18.4588 17.638 18.056 18.0337C17.6531 18.4294 17.1755 18.7408 16.651 18.9498C16.1264 19.1588 15.5655 19.2612 15.0009 19.251C13.8738 19.251 12.7928 18.8032 11.9957 18.0062C11.1987 17.2092 10.7509 16.1281 10.7509 15.001C10.7509 13.8738 11.1987 12.7928 11.9957 11.9958C12.7928 11.1987 13.8738 10.751 15.0009 10.751L14.9995 10.7524ZM22.437 5.79406C21.98 5.81235 21.5478 6.00677 21.2309 6.3366C20.914 6.66643 20.737 7.10608 20.737 7.56348C20.737 8.02087 20.914 8.46052 21.2309 8.79035C21.5478 9.12018 21.98 9.3146 22.437 9.33289C22.9067 9.33289 23.3571 9.14632 23.6892 8.81423C24.0213 8.48213 24.2078 8.03171 24.2078 7.56206C24.2078 7.09241 24.0213 6.64199 23.6892 6.30989C23.3571 5.9778 22.9067 5.79123 22.437 5.79123V5.79406Z" fill="white"/>
</svg>
