<svg width="211" height="32" viewBox="0 0 211 32" fill="none" xmlns="http://www.w3.org/2000/svg">
    <g clip-path="url(#clip0_8_125)">
        <path d="M7.90545 0.148438C8.04863 0.393882 8.1918 0.629099 8.33498 0.864316C10.4417 4.44371 12.3746 8.11514 13.9802 11.9502C14.6143 13.4638 15.1665 14.9978 15.5449 16.5932C15.9744 18.4238 15.8926 20.2237 15.0642 21.9316C13.8268 24.4781 11.7917 25.9917 8.97927 26.4416C8.88723 26.4519 8.80541 26.4723 8.69292 26.4825C8.69292 26.5439 8.69292 26.6155 8.69292 26.6769C8.69292 28.0677 8.69292 29.4586 8.69292 30.8494C8.69292 31.2482 8.41679 31.5653 8.02817 31.6266C7.66001 31.688 7.28162 31.4732 7.15889 31.1051C7.11799 30.9824 7.10776 30.8494 7.10776 30.7267C7.10776 29.3767 7.10776 28.0268 7.10776 26.6666C7.10776 26.6053 7.10776 26.5439 7.10776 26.503C6.65778 26.411 6.2078 26.3496 5.7885 26.2166C2.61818 25.2144 0.70576 23.0872 0.102376 19.8146C-0.132841 18.5465 0.0716958 17.2988 0.398955 16.0716C0.940977 13.9853 1.75912 12.0013 2.65909 10.048C4.19311 6.68339 5.9419 3.42103 7.84409 0.230252C7.85432 0.209799 7.87477 0.189345 7.90545 0.148438ZM8.7236 4.76074C8.71337 4.76074 8.70315 4.77097 8.69292 4.77097C8.69292 11.4695 8.69292 18.1681 8.69292 24.8872C8.81564 24.8667 8.92814 24.8565 9.04063 24.836C12.4666 24.202 14.829 20.868 14.0722 17.2784C13.7654 15.816 13.2745 14.4251 12.7223 13.0445C11.7507 10.6412 10.6053 8.31968 9.39857 6.01864C9.17358 5.59934 8.94859 5.18004 8.7236 4.76074ZM7.09753 24.8872C7.09753 18.1681 7.09753 11.4798 7.09753 4.74029C7.05663 4.81188 7.03617 4.84256 7.02594 4.87324C5.70668 7.30722 4.44878 9.77189 3.37496 12.3286C2.77158 13.7604 2.21933 15.2228 1.85117 16.7364C1.6364 17.6363 1.49323 18.5465 1.64663 19.4669C2.03525 21.9009 3.38519 23.5883 5.65555 24.5292C6.10553 24.7133 6.58619 24.8258 7.09753 24.8872Z" fill="white"/>
        <path d="M78.3478 6.87777C78.266 5.35398 78.174 3.51315 78.1842 2.14275H78.1331C77.7547 3.43133 77.3047 4.7915 76.7524 6.30507L74.8196 11.623H73.7457L71.9765 6.40734C71.4549 4.86309 71.0152 3.45178 70.7084 2.14275H70.6777C70.647 3.51315 70.5652 5.34375 70.4629 6.99027L70.1663 11.6946H68.8164L69.5834 0.731445H71.3833L73.2548 6.02895C73.7151 7.37889 74.0832 8.58566 74.3593 9.72084H74.4105C74.6866 8.61634 75.0752 7.40957 75.5661 6.02895L77.5194 0.731445H79.3194L80.0046 11.6946H78.6239L78.3478 6.87777Z" fill="white"/>
        <path d="M87.051 8.24817L85.9056 11.6946H84.4431L88.1657 0.731445H89.8736L93.6166 11.6946H92.103L90.9372 8.24817H87.051ZM90.6406 7.14367L89.5668 3.99381C89.3213 3.27793 89.1577 2.62341 88.9941 1.98935H88.9634C88.7997 2.64386 88.6259 3.30861 88.4111 3.97335L87.3373 7.14367H90.6406Z" fill="white"/>
        <path d="M106.574 11.2039C105.94 11.4289 104.692 11.8073 103.209 11.8073C101.553 11.8073 100.182 11.388 99.1084 10.3551C98.1675 9.4449 97.5846 7.98246 97.5846 6.27458C97.605 3.00199 99.8447 0.619141 103.516 0.619141C104.784 0.619141 105.776 0.895265 106.247 1.12026L105.909 2.27589C105.326 2.02022 104.59 1.80545 103.485 1.80545C100.816 1.80545 99.0777 3.4622 99.0777 6.21322C99.0777 8.99492 100.755 10.6312 103.301 10.6312C104.232 10.6312 104.866 10.4983 105.183 10.3346V7.06205H102.954V5.9371H106.564V11.2039H106.574Z" fill="white"/>
        <path d="M109.979 10.8459C109.979 10.2425 110.388 9.82324 110.951 9.82324C111.513 9.82324 111.912 10.2425 111.912 10.8459C111.912 11.4289 111.534 11.8686 110.941 11.8686C110.368 11.8686 109.979 11.4289 109.979 10.8459Z" fill="white"/>
        <path d="M124.297 0.731445H125.708V8.06409C125.708 10.9787 124.276 11.8685 122.395 11.8685C121.873 11.8685 121.239 11.756 120.881 11.6128L121.096 10.4572C121.392 10.5697 121.812 10.6719 122.282 10.6719C123.55 10.6719 124.297 10.0992 124.297 7.95159V0.731445Z" fill="white"/>
        <path d="M140.69 6.10054C140.69 9.87424 138.4 11.8685 135.597 11.8685C132.703 11.8685 130.668 9.62879 130.668 6.30507C130.668 2.82795 132.826 0.547363 135.761 0.547363C138.758 0.55759 140.69 2.8484 140.69 6.10054ZM132.192 6.27439C132.192 8.61634 133.46 10.7128 135.689 10.7128C137.929 10.7128 139.197 8.64702 139.197 6.1619C139.197 3.98358 138.062 1.703 135.7 1.703C133.358 1.71322 132.192 3.87109 132.192 6.27439Z" fill="white"/>
        <path d="M145.784 0.884658C146.397 0.751709 147.379 0.659668 148.371 0.659668C149.782 0.659668 150.692 0.905112 151.378 1.45736C151.95 1.87666 152.288 2.53118 152.288 3.39023C152.288 4.4436 151.592 5.37424 150.437 5.79354V5.82422C151.48 6.07989 152.697 6.94917 152.697 8.57524C152.697 9.51611 152.319 10.232 151.766 10.774C150.999 11.4694 149.762 11.7967 147.982 11.7967C147.011 11.7967 146.254 11.7353 145.784 11.6637V0.884658ZM147.195 5.36401H148.483C149.977 5.36401 150.856 4.58677 150.856 3.52318C150.856 2.2346 149.885 1.73349 148.453 1.73349C147.798 1.73349 147.43 1.78462 147.205 1.83575V5.36401H147.195ZM147.195 10.6206C147.471 10.6717 147.88 10.682 148.381 10.682C149.844 10.682 151.194 10.1502 151.194 8.55479C151.194 7.06167 149.905 6.43783 148.361 6.43783H147.195V10.6206Z" fill="white"/>
        <path d="M155.55 4.52563C155.929 3.15523 156.624 1.40644 157.064 0.659886L157.974 0.557617C157.636 1.51894 157.197 3.19614 157.013 4.362L155.55 4.52563Z" fill="white"/>
        <path d="M161.021 9.96628C161.655 10.3549 162.586 10.6822 163.558 10.6822C165.01 10.6822 165.848 9.91515 165.848 8.81065C165.848 7.78796 165.266 7.20504 163.783 6.63233C161.993 5.99827 160.888 5.06763 160.888 3.52337C160.888 1.81549 162.3 0.547363 164.437 0.547363C165.562 0.547363 166.37 0.803034 166.861 1.07916L166.472 2.23479C166.114 2.04048 165.378 1.71322 164.386 1.71322C162.893 1.71322 162.32 2.60296 162.32 3.35974C162.32 4.38243 162.985 4.88354 164.499 5.4767C166.35 6.19258 167.29 7.08231 167.29 8.69815C167.29 10.3856 166.043 11.848 163.455 11.848C162.402 11.848 161.246 11.5412 160.663 11.1526L161.021 9.96628Z" fill="white"/>
        <path d="M31.0691 26.0734H26.8045V30.021H31.5498V31.2073H25.383V20.2441H31.3043V21.4305H26.8045V24.8974H31.0691V26.0734Z" fill="white"/>
        <path d="M36.4485 29.479C37.0825 29.8676 38.0132 30.1949 38.9847 30.1949C40.4369 30.1949 41.2755 29.4278 41.2755 28.3233C41.2755 27.3007 40.6926 26.7177 39.2097 26.145C37.42 25.511 36.3155 24.5803 36.3155 23.0361C36.3155 21.3282 37.7268 20.0601 39.8642 20.0601C40.9892 20.0601 41.7971 20.3157 42.288 20.5919L41.8994 21.7475C41.5414 21.5532 40.8051 21.2259 39.8131 21.2259C38.32 21.2259 37.7473 22.1157 37.7473 22.8724C37.7473 23.8951 38.412 24.3962 39.9256 24.9894C41.7766 25.7053 42.7175 26.595 42.7175 28.2108C42.7175 29.8983 41.4698 31.3607 38.8824 31.3607C37.8291 31.3607 36.6734 31.0539 36.0905 30.6653L36.4485 29.479Z" fill="white"/>
        <path d="M47.7184 29.479C48.3525 29.8676 49.2831 30.1949 50.2547 30.1949C51.7069 30.1949 52.5455 29.4278 52.5455 28.3233C52.5455 27.3007 51.9626 26.7177 50.4797 26.145C48.69 25.511 47.5855 24.5803 47.5855 23.0361C47.5855 21.3282 48.9968 20.0601 51.1342 20.0601C52.2591 20.0601 53.067 20.3157 53.5579 20.5919L53.1693 21.7475C52.8114 21.5532 52.075 21.2259 51.083 21.2259C49.5899 21.2259 49.0172 22.1157 49.0172 22.8724C49.0172 23.8951 49.682 24.3962 51.1955 24.9894C53.0466 25.7053 53.9875 26.595 53.9875 28.2108C53.9875 29.8983 52.7398 31.3607 50.1524 31.3607C49.099 31.3607 47.9434 31.0539 47.3605 30.6653L47.7184 29.479Z" fill="white"/>
        <path d="M64.8584 26.0734H60.5938V30.021H65.3493V31.2073H59.1825V20.2441H65.1038V21.4305H60.604V24.8974H64.8686V26.0734H64.8584Z" fill="white"/>
        <path d="M70.4324 31.2073V20.2441H71.9767L75.4845 25.7871C76.2924 27.0757 76.9367 28.2211 77.448 29.346L77.4787 29.3256C77.3458 27.8631 77.3151 26.5336 77.3151 24.8258V20.2441H78.6446V31.2073H77.2128L73.7357 25.6439C72.9687 24.4269 72.2426 23.169 71.6903 21.9827L71.6392 22.0032C71.721 23.3838 71.7517 24.703 71.7517 26.5234V31.2073H70.4324Z" fill="white"/>
        <path d="M83.6451 30.3789L89.7301 21.4816V21.4305H84.1667V20.2441H91.5607V21.1032L85.5167 29.9699V30.021H91.6425V31.2073H83.6451V30.3789Z" fill="white"/>
        <path d="M105.101 27.7609L103.966 31.2073H102.504L106.226 20.2441H107.934L111.677 31.2073H110.164L108.998 27.7609H105.101ZM108.701 26.6564L107.627 23.5065C107.382 22.7906 107.218 22.1361 107.055 21.502H107.024C106.86 22.1566 106.687 22.8213 106.472 23.486L105.398 26.6564H108.701Z" fill="white"/>
        <path d="M116.535 20.3774C117.22 20.2649 118.11 20.1626 119.255 20.1626C120.656 20.1626 121.679 20.4899 122.334 21.0728C122.937 21.5944 123.295 22.392 123.295 23.3636C123.295 24.3556 122.998 25.1328 122.446 25.7055C121.7 26.5032 120.483 26.9123 119.092 26.9123C118.672 26.9123 118.284 26.8919 117.957 26.81V31.1974H116.545V20.3774H116.535ZM117.946 25.6646C118.253 25.7465 118.642 25.7771 119.112 25.7771C120.82 25.7771 121.863 24.9488 121.863 23.4352C121.863 21.983 120.84 21.2875 119.276 21.2875C118.662 21.2875 118.181 21.3387 117.946 21.4V25.6646Z" fill="white"/>
        <path d="M137.807 25.6132C137.807 29.3869 135.516 31.3812 132.714 31.3812C129.819 31.3812 127.784 29.1415 127.784 25.8178C127.784 22.3406 129.942 20.0601 132.877 20.0601C135.874 20.0703 137.807 22.3611 137.807 25.6132ZM129.298 25.7871C129.298 28.129 130.566 30.2255 132.795 30.2255C135.035 30.2255 136.303 28.1597 136.303 25.6746C136.303 23.4963 135.168 21.2157 132.806 21.2157C130.474 21.2259 129.298 23.3838 129.298 25.7871Z" fill="white"/>
        <path d="M144.567 21.4509H141.233V20.2441H149.342V21.4509H145.988V31.2073H144.556V21.4509H144.567Z" fill="white"/>
        <path d="M155.233 20.2441V24.8258H160.531V20.2441H161.963V31.2073H160.531V26.0734H155.233V31.2073H153.822V20.2441H155.233Z" fill="white"/>
        <path d="M173.355 26.0734H169.09V30.021H173.836V31.2073H167.669V20.2441H173.59V21.4305H169.09V24.8974H173.355V26.0734Z" fill="white"/>
        <path d="M178.928 20.2441H180.34V25.5314H180.391C180.687 25.1121 180.974 24.7235 181.25 24.3656L184.604 20.2544H186.363L182.395 24.9076L186.67 31.2175H184.993L181.383 25.8382L180.34 27.045V31.2278H178.928V20.2441Z" fill="white"/>
        <path d="M196.672 26.0734H192.408V30.021H197.153V31.2073H190.986V20.2441H196.908V21.4305H192.408V24.8974H196.672V26.0734Z" fill="white"/>
        <path d="M202.246 31.2073V20.2441H203.79L207.298 25.7871C208.116 27.0757 208.75 28.2211 209.262 29.346L209.292 29.3256C209.159 27.8631 209.129 26.5336 209.129 24.8258V20.2441H210.458V31.2073H209.026L205.549 25.6439C204.782 24.4269 204.056 23.169 203.504 21.9827L203.453 22.0032C203.534 23.3838 203.565 24.703 203.565 26.5234V31.2073H202.246Z" fill="white"/>
    </g>
    <defs>
        <clipPath id="clip0_8_125">
            <rect width="210.479" height="31.4987" fill="white" transform="translate(0 0.148438)"/>
        </clipPath>
    </defs>
</svg>
