<svg width="193" height="30" viewBox="0 0 193 30" fill="none" xmlns="http://www.w3.org/2000/svg">
<g clip-path="url(#clip0_5_11)">
<path d="M7.24302 0.19043C7.3742 0.415305 7.50538 0.63081 7.63656 0.846315C9.56673 4.12574 11.3376 7.4895 12.8087 11.0032C13.3896 12.3899 13.8956 13.7954 14.2423 15.2571C14.6358 16.9343 14.5608 18.5833 13.8019 20.1481C12.6681 22.4812 10.8035 23.8679 8.22685 24.2802C8.14252 24.2895 8.06757 24.3083 7.9645 24.3177C7.9645 24.3739 7.9645 24.4395 7.9645 24.4957C7.9645 25.77 7.9645 27.0443 7.9645 28.3186C7.9645 28.684 7.71151 28.9744 7.35546 29.0307C7.01815 29.0869 6.67147 28.8901 6.55903 28.5528C6.52155 28.4404 6.51218 28.3186 6.51218 28.2061C6.51218 26.9693 6.51218 25.7325 6.51218 24.4863C6.51218 24.4301 6.51218 24.3739 6.51218 24.3364C6.09991 24.2521 5.68764 24.1958 5.30348 24.074C2.39884 23.1558 0.646687 21.2069 0.0938685 18.2085C-0.121637 17.0467 0.0657591 15.9036 0.365593 14.7792C0.862192 12.8678 1.61178 11.05 2.43632 9.26039C3.84179 6.17773 5.44402 3.18876 7.1868 0.265388C7.19617 0.246648 7.21491 0.227909 7.24302 0.19043ZM7.99261 4.41621C7.98324 4.41621 7.97387 4.42558 7.9645 4.42558C7.9645 10.5628 7.9645 16.7 7.9645 22.856C8.07694 22.8372 8.18 22.8279 8.28307 22.8091C11.422 22.2282 13.5864 19.1736 12.893 15.8848C12.6119 14.545 12.1622 13.2707 11.6562 12.0057C10.7661 9.80384 9.71665 7.6769 8.61101 5.56869C8.40488 5.18453 8.19874 4.80037 7.99261 4.41621ZM6.50281 22.856C6.50281 16.7 6.50281 10.5722 6.50281 4.39747C6.46533 4.46306 6.44659 4.49117 6.43722 4.51928C5.22852 6.74929 4.07603 9.00741 3.0922 11.3499C2.53939 12.6616 2.03342 14.0015 1.6961 15.3882C1.49934 16.2128 1.36816 17.0467 1.50871 17.89C1.86476 20.12 3.10157 21.666 5.18167 22.528C5.59394 22.6967 6.03432 22.7997 6.50281 22.856Z" fill="black"/>
<path d="M71.782 6.35537C71.7071 4.95927 71.6227 3.27271 71.6321 2.01715H71.5853C71.2386 3.19775 70.8263 4.44393 70.3203 5.83066L68.5494 10.703H67.5656L65.9446 5.92436C65.4668 4.50952 65.0639 3.21649 64.7828 2.01715H64.7547C64.7266 3.27271 64.6516 4.9499 64.5579 6.45844L64.2862 10.7685H63.0494L63.7521 0.724121H65.4012L67.1159 5.57768C67.5375 6.81449 67.8748 7.92013 68.1278 8.96017H68.1747C68.4276 7.94824 68.7837 6.8426 69.2334 5.57768L71.0231 0.724121H72.6722L73.2999 10.7685H72.035L71.782 6.35537Z" fill="black"/>
<path d="M79.7558 7.61092L78.7063 10.7685H77.3665L80.7771 0.724121H82.3418L85.7712 10.7685H84.3844L83.3163 7.61092H79.7558ZM83.0445 6.59898L82.0607 3.71309C81.8358 3.0572 81.6859 2.45753 81.536 1.87661H81.5079C81.358 2.47627 81.1987 3.08531 81.0019 3.69435L80.0181 6.59898H83.0445Z" fill="black"/>
<path d="M97.6427 10.3188C97.0617 10.525 95.9186 10.8717 94.56 10.8717C93.0421 10.8717 91.7865 10.4875 90.8027 9.54114C89.9407 8.70723 89.4066 7.36735 89.4066 5.80259C89.4254 2.80426 91.4773 0.621094 94.8411 0.621094C96.003 0.621094 96.9118 0.874078 97.3428 1.08021L97.0336 2.139C96.4995 1.90476 95.8249 1.70799 94.813 1.70799C92.3675 1.70799 90.7746 3.2259 90.7746 5.74637C90.7746 8.29496 92.3113 9.79412 94.6443 9.79412C95.497 9.79412 96.0779 9.67232 96.3684 9.5224V6.52407H94.3258V5.49339H97.6333V10.3188H97.6427Z" fill="black"/>
<path d="M100.763 9.99118C100.763 9.43836 101.138 9.0542 101.653 9.0542C102.168 9.0542 102.534 9.43836 102.534 9.99118C102.534 10.5253 102.187 10.9282 101.644 10.9282C101.119 10.9282 100.763 10.5253 100.763 9.99118Z" fill="black"/>
<path d="M113.881 0.724121H115.174V7.44227C115.174 10.1127 113.862 10.9278 112.138 10.9278C111.66 10.9278 111.079 10.8248 110.751 10.6936L110.948 9.6348C111.22 9.73787 111.604 9.83156 112.035 9.83156C113.197 9.83156 113.881 9.30686 113.881 7.3392V0.724121Z" fill="black"/>
<path d="M128.9 5.64346C128.9 9.10092 126.801 10.928 124.234 10.928C121.582 10.928 119.718 8.87604 119.718 5.83086C119.718 2.64513 121.695 0.555664 124.384 0.555664C127.129 0.565034 128.9 2.66387 128.9 5.64346ZM121.114 5.80275C121.114 7.94843 122.276 9.86924 124.318 9.86924C126.37 9.86924 127.532 7.97654 127.532 5.69968C127.532 3.70392 126.492 1.61445 124.328 1.61445C122.182 1.62382 121.114 3.60085 121.114 5.80275Z" fill="black"/>
<path d="M133.566 0.864827C134.129 0.74302 135.028 0.658691 135.937 0.658691C137.23 0.658691 138.064 0.883567 138.692 1.38954C139.216 1.7737 139.526 2.37336 139.526 3.16043C139.526 4.12552 138.889 4.97817 137.83 5.36233V5.39044C138.785 5.62468 139.9 6.42112 139.9 7.91091C139.9 8.77294 139.554 9.42882 139.048 9.92542C138.345 10.5626 137.211 10.8624 135.581 10.8624C134.691 10.8624 133.997 10.8062 133.566 10.7406V0.864827ZM134.86 4.9688H136.04C137.408 4.9688 138.214 4.25669 138.214 3.28223C138.214 2.10164 137.324 1.64252 136.012 1.64252C135.412 1.64252 135.075 1.68937 134.869 1.73622V4.9688H134.86ZM134.86 9.78487C135.112 9.83172 135.487 9.84109 135.946 9.84109C137.286 9.84109 138.523 9.35386 138.523 7.89217C138.523 6.52418 137.342 5.95263 135.928 5.95263H134.86V9.78487Z" fill="black"/>
<path d="M142.515 4.20042C142.861 2.94487 143.498 1.34263 143.901 0.658639L144.735 0.564941C144.426 1.4457 144.023 2.98235 143.855 4.05051L142.515 4.20042Z" fill="black"/>
<path d="M147.527 9.18525C148.108 9.5413 148.961 9.84113 149.851 9.84113C151.182 9.84113 151.95 9.1384 151.95 8.12646C151.95 7.18948 151.416 6.6554 150.057 6.13069C148.418 5.54977 147.406 4.69711 147.406 3.28227C147.406 1.71752 148.699 0.555664 150.657 0.555664C151.688 0.555664 152.428 0.789909 152.878 1.04289L152.522 2.10168C152.194 1.92365 151.519 1.62382 150.61 1.62382C149.242 1.62382 148.717 2.43899 148.717 3.13236C148.717 4.06934 149.326 4.52846 150.713 5.07191C152.409 5.72779 153.271 6.54296 153.271 8.02339C153.271 9.56941 152.128 10.9093 149.757 10.9093C148.792 10.9093 147.734 10.6282 147.2 10.2721L147.527 9.18525Z" fill="black"/>
<path d="M28.4655 23.9428H24.5583V27.5596H28.9058V28.6465H23.2559V18.6021H28.681V19.6889H24.5583V22.8653H28.4655V23.9428Z" fill="black"/>
<path d="M33.394 27.0627C33.9749 27.4187 34.8276 27.7186 35.7177 27.7186C37.0482 27.7186 37.8165 27.0158 37.8165 26.0039C37.8165 25.0669 37.2824 24.5328 35.9238 24.0081C34.2841 23.4272 33.2722 22.5746 33.2722 21.1597C33.2722 19.595 34.5652 18.4331 36.5235 18.4331C37.5542 18.4331 38.2944 18.6674 38.7441 18.9203L38.3881 19.9791C38.0601 19.8011 37.3855 19.5013 36.4766 19.5013C35.1087 19.5013 34.5839 20.3164 34.5839 21.0098C34.5839 21.9468 35.193 22.4059 36.5797 22.9493C38.2756 23.6052 39.1377 24.4204 39.1377 25.9008C39.1377 27.4468 37.9946 28.7867 35.624 28.7867C34.6589 28.7867 33.6001 28.5056 33.066 28.1496L33.394 27.0627Z" fill="black"/>
<path d="M43.7195 27.0627C44.3004 27.4187 45.1531 27.7186 46.0432 27.7186C47.3737 27.7186 48.142 27.0158 48.142 26.0039C48.142 25.0669 47.6079 24.5328 46.2493 24.0081C44.6096 23.4272 43.5977 22.5746 43.5977 21.1597C43.5977 19.595 44.8907 18.4331 46.849 18.4331C47.8797 18.4331 48.6199 18.6674 49.0696 18.9203L48.7136 19.9791C48.3856 19.8011 47.711 19.5013 46.8021 19.5013C45.4342 19.5013 44.9094 20.3164 44.9094 21.0098C44.9094 21.9468 45.5185 22.4059 46.9052 22.9493C48.6011 23.6052 49.4632 24.4204 49.4632 25.9008C49.4632 27.4468 48.3201 28.7867 45.9495 28.7867C44.9844 28.7867 43.9256 28.5056 43.3915 28.1496L43.7195 27.0627Z" fill="black"/>
<path d="M59.4233 23.9428H55.5161V27.5596H59.873V28.6465H54.223V18.6021H59.6481V19.6889H55.5254V22.8653H59.4326V23.9428H59.4233Z" fill="black"/>
<path d="M64.5298 28.6465V18.6021H65.9446L69.1585 23.6805C69.8987 24.8611 70.489 25.9105 70.9575 26.9412L70.9856 26.9224C70.8638 25.5825 70.8357 24.3645 70.8357 22.7997V18.6021H72.0537V28.6465H70.742L67.5562 23.5493C66.8535 22.4343 66.1882 21.2818 65.6823 20.1949L65.6354 20.2137C65.7104 21.4786 65.7385 22.6873 65.7385 24.3551V28.6465H64.5298Z" fill="black"/>
<path d="M76.6356 27.8875L82.2106 19.7358V19.6889H77.1135V18.6021H83.8878V19.3891L78.3503 27.5127V27.5596H83.9628V28.6465H76.6356V27.8875Z" fill="black"/>
<path d="M96.2934 25.4889L95.2534 28.6465H93.9135L97.3241 18.6021H98.8889L102.318 28.6465H100.931L99.8633 25.4889H96.2934ZM99.5916 24.4769L98.6078 21.591C98.3829 20.9351 98.233 20.3355 98.0831 19.7545H98.055C97.905 20.3542 97.7458 20.9632 97.549 21.5723L96.5652 24.4769H99.5916Z" fill="black"/>
<path d="M106.769 18.7236C107.397 18.6206 108.212 18.5269 109.261 18.5269C110.545 18.5269 111.482 18.8267 112.082 19.3608C112.634 19.8386 112.962 20.5695 112.962 21.4596C112.962 22.3685 112.691 23.0806 112.185 23.6053C111.501 24.3361 110.386 24.7109 109.111 24.7109C108.727 24.7109 108.371 24.6922 108.071 24.6172V28.6369H106.778V18.7236H106.769ZM108.062 23.5678C108.343 23.6428 108.699 23.6709 109.13 23.6709C110.695 23.6709 111.651 22.9119 111.651 21.5252C111.651 20.1947 110.714 19.5575 109.28 19.5575C108.718 19.5575 108.277 19.6044 108.062 19.6606V23.5678Z" fill="black"/>
<path d="M126.258 23.5209C126.258 26.9784 124.159 28.8055 121.592 28.8055C118.94 28.8055 117.076 26.7535 117.076 23.7083C117.076 20.5226 119.053 18.4331 121.742 18.4331C124.487 18.4425 126.258 20.5413 126.258 23.5209ZM118.462 23.6802C118.462 25.8259 119.624 27.7467 121.667 27.7467C123.719 27.7467 124.881 25.854 124.881 23.5771C124.881 21.5814 123.841 19.4919 121.676 19.4919C119.54 19.5013 118.462 21.4783 118.462 23.6802Z" fill="black"/>
<path d="M132.451 19.7077H129.397V18.6021H136.827V19.7077H133.754V28.6465H132.442V19.7077H132.451Z" fill="black"/>
<path d="M142.224 18.6021V22.7997H147.078V18.6021H148.39V28.6465H147.078V23.9428H142.224V28.6465H140.931V18.6021H142.224Z" fill="black"/>
<path d="M158.827 23.9428H154.92V27.5596H159.268V28.6465H153.618V18.6021H159.043V19.6889H154.92V22.8653H158.827V23.9428Z" fill="black"/>
<path d="M163.934 18.6021H165.227V23.4462H165.274C165.546 23.0621 165.808 22.706 166.061 22.3781L169.134 18.6114H170.746L167.11 22.8747L171.027 28.6558H169.49L166.183 23.7273L165.227 24.833V28.6652H163.934V18.6021Z" fill="black"/>
<path d="M180.191 23.9428H176.283V27.5596H180.631V28.6465H174.981V18.6021H180.406V19.6889H176.283V22.8653H180.191V23.9428Z" fill="black"/>
<path d="M185.297 28.6465V18.6021H186.712L189.926 23.6805C190.675 24.8611 191.256 25.9105 191.725 26.9412L191.753 26.9224C191.631 25.5825 191.603 24.3645 191.603 22.7997V18.6021H192.821V28.6465H191.509L188.324 23.5493C187.621 22.4343 186.956 21.2818 186.45 20.1949L186.403 20.2137C186.478 21.4786 186.506 22.6873 186.506 24.3551V28.6465H185.297Z" fill="black"/>
</g>
<defs>
<clipPath id="clip0_5_11">
<rect width="192.84" height="28.859" fill="white" transform="translate(0 0.19043)"/>
</clipPath>
</defs>
</svg>
