<svg width="38" height="36" viewBox="0 0 38 36" fill="none" xmlns="http://www.w3.org/2000/svg">
<path d="M13.2942 35.6923L10.0949 30.2961L4.00575 28.9839L4.60284 22.7031L0.496765 17.9999L4.60284 13.2967L4.00575 7.01595L10.0949 5.70375L13.2942 0.307617L19 2.71821L24.7058 0.307617L27.9051 5.70375L33.9942 7.01595L33.3971 13.2967L37.5032 17.9999L33.3971 22.7031L33.9942 28.9839L27.9051 30.2961L24.7058 35.6923L19 33.2817L13.2942 35.6923ZM14.1125 33.2374L19 31.2028L23.9096 33.2374L26.6666 28.6374L31.9375 27.4653L31.4583 22.0249L35.0041 17.9999L31.4583 13.9528L31.9375 8.51244L26.6666 7.36244L23.8875 2.76244L19 4.79707L14.0903 2.76244L11.3333 7.36244L6.06248 8.51244L6.54164 13.9528L2.99581 17.9999L6.54164 22.0249L6.06248 27.4874L11.3333 28.6374L14.1125 33.2374ZM16.9875 23.4772L26.4897 13.9749L25.1333 12.5964L16.9875 20.7423L12.8666 16.6435L11.5102 17.9999L16.9875 23.4772Z" fill="black"/>
</svg>
