<svg width="19" height="18" viewBox="0 0 19 18" fill="none" xmlns="http://www.w3.org/2000/svg">
<path d="M14.4615 17.9999H4.65385V6.99994L10.9231 0.807617L11.3654 1.24994C11.4564 1.34096 11.533 1.45763 11.5952 1.59994C11.6574 1.74224 11.6885 1.87301 11.6885 1.99224V2.14994L10.6654 6.99994H17.3846C17.8026 6.99994 18.1763 7.16468 18.5058 7.49417C18.8353 7.82365 19 8.19737 19 8.61532V9.84609C19 9.93713 18.9907 10.0365 18.9721 10.1442C18.9535 10.2519 18.9256 10.3512 18.8885 10.4422L16.1577 16.9153C16.0205 17.223 15.7898 17.4807 15.4654 17.6884C15.141 17.8961 14.8064 17.9999 14.4615 17.9999ZM3.65385 6.99994V17.9999H0V6.99994H3.65385Z" fill="#9CB79A"/>
</svg>
